#N canvas 0 0 570 523 10;
#X obj 159 214 vline~;
#X obj 31 174 vline~;
#X obj 159 234 dbtorms~;
#X obj 31 194 dbtorms~;
#X obj 15 230 -~;
#X obj 15 210 sig~ 1;
#X obj 102 48 max 0.1;
#X obj 202 48 max 0.1;
#X obj 31 88 f 3;
#X text 100 5 attack (ms);
#X text 200 5 decay (ms);
#X text 30 5 trigger;
#X msg 159 194 0 \, 100 0 \$1 \, 0 \$2 \$1;
#X msg 31 154 100 \, 60 \$1 0 \, 100 0 \$1;
#X obj 31 108 pack 3 4;
#X obj 31 28 inlet;
#X obj 102 28 inlet;
#X obj 202 28 inlet;
#X obj 88 360 outlet~;
#X obj 31 48 b;
#X text 290 452 this is by F. Barknecht I suppose..;
#X connect 0 0 2 0;
#X connect 1 0 3 0;
#X connect 2 0 18 0;
#X connect 3 0 4 1;
#X connect 4 0 18 0;
#X connect 5 0 4 0;
#X connect 6 0 8 1;
#X connect 7 0 14 1;
#X connect 8 0 14 0;
#X connect 12 0 0 0;
#X connect 13 0 1 0;
#X connect 14 0 12 0;
#X connect 14 0 13 0;
#X connect 15 0 19 0;
#X connect 16 0 6 0;
#X connect 17 0 7 0;
#X connect 19 0 8 0;
