#N canvas 0 0 882 633 12;
#X msg 448 -48 bang;
#X obj 448 102 t f f;
#X msg 532 8 1;
#X obj 624 -22 t b f;
#X obj 117 51 dbtorms;
#X obj 624 -55 / 2;
#X obj 448 141 expr ($f3/$f1)*($f2 + $f1 -1);
#X obj 604 178 + 1;
#X obj 448 214 tabwrite hfa;
#X obj 29 56 *~;
#X floatatom 604 215 5 0 0 0 - - -;
#X obj 448 -20 t b b;
#N canvas 0 0 474 324 iterate 0;
#X obj 60 70 f;
#X obj 98 69 + 1;
#X obj 60 30 until;
#X obj 131 -7 inlet;
#X obj 97 156 outlet;
#X obj 60 -8 inlet;
#X obj 60 105 sel 4096;
#X connect 0 0 1 0;
#X connect 0 0 6 0;
#X connect 1 0 0 1;
#X connect 2 0 0 0;
#X connect 3 0 0 1;
#X connect 5 0 2 0;
#X connect 6 0 2 1;
#X connect 6 1 4 0;
#X restore 448 69 pd iterate;
#X obj 448 179 t f f;
#X obj 29 160 outlet~;
#X floatatom 277 59 5 0 0 0 - - -;
#X obj 268 -13 vsl 8 60 0 100 0 0 empty empty empty 0 -8 0 8 -258699
-1 -1 4720 1;
#X text 287 26 level;
#X text 380 -172 Colored Noise Generator;
#X obj 29 102 fft_convolution 8192 hfa;
#X obj 532 35 t f f f f;
#X obj 187 -122 r cn_alpha;
#X obj 185 -92 r cn_lvl;
#N canvas 0 0 483 339 guts 0;
#N canvas 0 0 450 300 graph1 0;
#X array hfa 8192 float 2;
#X coords 0 600 8192 -600 200 140 1;
#X restore 103 99 graph;
#X restore 283 290 pd guts;
#X obj 342 -13 vsl 8 60 0 4 0 0 empty empty empty 0 -8 0 8 -258699
-1 -1 1475 1;
#X text 361 26 alpha;
#X floatatom 340 61 5 0 0 0 - - -;
#X obj 29 -163 inlet~;
#X obj 29 -6 *~;
#X obj 87 -163 inlet;
#X obj 87 -41 line;
#X obj 87 -11 sig~;
#X obj 170 -182 loadbang;
#X msg 154 -146 0;
#X text 381 -148 AZ \, 2006;
#X text 50 354 Input: - gaussian noise (actually noise is uniform)
- start trigger - alpha [0-4] - Level [dB] [0-100];
#X msg 87 -88 \$1 1500;
#X connect 0 0 11 0;
#X connect 1 0 6 0;
#X connect 1 1 7 0;
#X connect 2 0 20 0;
#X connect 3 0 0 0;
#X connect 3 1 6 1;
#X connect 4 0 9 1;
#X connect 5 0 3 0;
#X connect 6 0 13 0;
#X connect 7 0 8 1;
#X connect 7 0 10 0;
#X connect 9 0 19 0;
#X connect 11 0 12 0;
#X connect 11 1 2 0;
#X connect 12 0 1 0;
#X connect 13 0 8 0;
#X connect 13 1 6 2;
#X connect 16 0 15 0;
#X connect 16 0 4 0;
#X connect 19 0 14 0;
#X connect 20 0 12 1;
#X connect 20 1 8 0;
#X connect 20 2 8 1;
#X connect 20 3 6 2;
#X connect 21 0 24 0;
#X connect 22 0 16 0;
#X connect 24 0 5 0;
#X connect 24 0 26 0;
#X connect 27 0 28 0;
#X connect 28 0 9 0;
#X connect 29 0 36 0;
#X connect 30 0 31 0;
#X connect 31 0 28 1;
#X connect 32 0 33 0;
#X connect 33 0 30 0;
#X connect 36 0 30 0;
#X coords 0 0 1 1 175 90 0;
