#N canvas 16 112 1512 463 12;
#X text 1155 45 Sample Space;
#N canvas 0 22 450 278 (subpatch) 0;
#X array Sample\ 1 347904 float 2;
#X coords 0 1 347904 -1 200 140 1 0 0;
#X restore 816 116 graph;
#X obj 821 286 hsl 180 19 0 347904 0 0 start empty empty -2 -10 0 12 #c6feff #000000 #000000 0 1;
#X obj 822 313 hsl 180 19 0 347904 0 0 empty empty empty -2 -10 0 12 #ffc7c6 #000000 #000000 0 1;
#X obj 968 260 bng 19 250 50 0 go empty empty 0 -10 0 12 #e3c6ff #000000 #000000;
#X msg 817 262 range 0 \$1;
#X obj 964 335 s end;
#X obj 818 335 s start;
#N canvas 208 246 450 278 (subpatch) 0;
#X array Sample\ 2 347904 float 2;
#X coords 0 1 347904 -1 200 140 1 0 0;
#X restore 1037 116 graph;
#X obj 1042 286 hsl 180 19 0 347904 0 0 start empty empty -2 -10 0 12 #c6feff #000000 #000000 0 1;
#X obj 1043 313 hsl 180 19 0 347904 0 0 empty empty empty -2 -10 0 12 #ffc7c6 #000000 #000000 0 1;
#X obj 1189 260 bng 19 250 50 0 go empty empty 0 -10 0 12 #e3c6ff #000000 #000000;
#X msg 1038 262 range 0 \$1;
#X obj 1185 335 s end;
#X obj 1039 335 s start;
#N canvas 0 22 450 278 (subpatch) 0;
#X array Sample\ 3 347904 float 2;
#X coords 0 1 347904 -1 200 140 1 0 0;
#X restore 1251 116 graph;
#X obj 1256 286 hsl 180 19 0 347904 0 0 start empty empty -2 -10 0 12 #c6feff #000000 #000000 0 1;
#X obj 1257 313 hsl 180 19 0 347904 0 0 empty empty empty -2 -10 0 12 #ffc7c6 #000000 #000000 0 1;
#X obj 1403 260 bng 19 250 50 0 go empty empty 0 -10 0 12 #e3c6ff #000000 #000000;
#X msg 1252 262 range 0 \$1;
#X obj 1399 335 s end;
#X obj 1253 335 s start;
#X text 155 26 Synthesizers;
#N canvas 353 545 450 300 better-fm 0;
#X obj 12 270 dac~;
#X obj 12 246 *~ 0.1;
#X obj 12 224 osc~;
#X obj 12 201 +~;
#X floatatom 14 57 5 0 0 0 - - - 0;
#X obj 33 157 *~;
#X floatatom 101 35 5 0 0 0 - - - 0;
#X obj 33 126 osc~;
#X floatatom 59 37 5 0 0 0 - - - 0;
#X obj 14 36 mtof;
#X obj 116 117 vsl 32 136 0 127 0 0 C empty C\ (carrier) 0 -9 0 10 #ff0400 #000000 #000000 0 1;
#X obj 201 117 vsl 32 136 0 10 0 0 H empty H\ (harmonicity) 0 -9 0 10 #ff8300 #000000 #000000 0 1;
#X obj 295 118 vsl 32 136 0 1 0 0 I empty I\ (index) 0 -9 0 10 #faff00 #000000 #000000 0 1;
#X obj 14 12 r C;
#X obj 59 12 r H;
#X obj 101 13 r I;
#X obj 31 91 *~;
#X obj 71 126 *~;
#X connect 1 0 0 0;
#X connect 1 0 0 1;
#X connect 2 0 1 0;
#X connect 3 0 2 0;
#X connect 4 0 3 0;
#X connect 4 0 16 0;
#X connect 5 0 3 1;
#X connect 6 0 17 1;
#X connect 7 0 5 0;
#X connect 8 0 16 1;
#X connect 9 0 4 0;
#X connect 13 0 9 0;
#X connect 14 0 8 0;
#X connect 15 0 6 0;
#X connect 16 0 7 0;
#X connect 16 0 17 0;
#X connect 17 0 5 1;
#X coords 0 -1 1 1 250 160 2 100 100;
#X restore 13 311 pd better-fm;
#N canvas 545 305 870 570 rando-soundfiles 1;
#N canvas 0 23 450 300 infcount 0;
#X obj 141 164 outlet;
#X obj 118 56 inlet;
#X obj 215 60 inlet;
#X obj 162 90 metro;
#X obj 145 122 f;
#X obj 178 122 + 1;
#X connect 1 0 3 0;
#X connect 2 0 3 1;
#X connect 3 0 4 0;
#X connect 4 0 5 0;
#X connect 4 0 0 0;
#X connect 5 0 4 1;
#X restore 63 77 pd infcount;
#X obj 135 124 tgl 15 0 empty empty empty 17 7 0 10 #fcfcfc #000000 #000000 0 1;
#X msg 125 46 125;
#X obj 125 23 loadbang;
#X floatatom 63 98 12 0 0 0 - - - 0;
#X obj 98 165 cos;
#X floatatom 98 187 7 0 0 0 - - - 0;
#X obj 101 208 hsl 128 15 -1 1 0 0 empty empty empty -2 -8 0 10 #fcfcfc #000000 #000000 0 1;
#X obj 244 164 cos;
#X floatatom 245 188 7 0 0 0 - - - 0;
#X obj 248 209 hsl 128 15 -1 1 0 0 empty empty empty -2 -8 0 10 #fcfcfc #000000 #000000 0 1;
#X obj 387 163 cos;
#X floatatom 388 187 7 0 0 0 - - - 0;
#X obj 391 208 hsl 128 15 -1 1 0 0 empty empty empty -2 -8 0 10 #fcfcfc #000000 #000000 0 1;
#X obj 526 163 cos;
#X floatatom 527 187 7 0 0 0 - - - 0;
#X obj 530 208 hsl 128 15 -1 1 0 0 empty empty empty -2 -8 0 10 #fcfcfc #000000 #000000 0 1;
#N canvas 0 23 618 659 fm_pad_panner 0;
#X obj 112 308 fmsynth 1 0.1;
#X obj 170 270 vline~;
#X floatatom 107 229 5 0 0 0 - - - 0;
#X obj 107 252 mtof;
#X obj 169 228 bng 15 250 50 0 empty empty empty 17 7 0 10 #fcfcfc #000000 #000000;
#X msg 170 249 1 1000 \, 0 3000 1000;
#X obj 109 133 metro;
#X obj 65 98 tgl 15 0 empty empty empty 17 7 0 10 #fcfcfc #000000 #000000 0 1;
#X floatatom 149 133 5 0 0 0 - - - 0;
#X obj 142 74 bng 15 250 50 0 empty empty empty 17 7 0 10 #fcfcfc #000000 #000000;
#X obj 109 154 bng 15 250 50 0 empty empty empty 17 7 0 10 #fcfcfc #000000 #000000;
#X obj 142 113 + 4000;
#X obj 142 92 random 3000;
#X obj 107 200 aeolian 36;
#X obj 108 177 random 28;
#X obj 64 58 loadbang;
#X msg 64 79 1;
#X obj 105 379 outlet~;
#X obj 167 380 outlet~;
#X obj 113 353 pan 0.5;
#X obj 317 59 inlet;
#X obj 113 330 *~ 0.2;
#X connect 0 0 21 0;
#X connect 1 0 0 1;
#X connect 2 0 3 0;
#X connect 2 0 4 0;
#X connect 3 0 0 0;
#X connect 4 0 5 0;
#X connect 5 0 1 0;
#X connect 6 0 10 0;
#X connect 7 0 6 0;
#X connect 9 0 12 0;
#X connect 10 0 12 0;
#X connect 10 0 14 0;
#X connect 11 0 6 1;
#X connect 11 0 8 0;
#X connect 12 0 11 0;
#X connect 13 0 2 0;
#X connect 14 0 13 0;
#X connect 15 0 16 0;
#X connect 16 0 7 0;
#X connect 19 0 17 0;
#X connect 19 1 18 0;
#X connect 20 0 19 1;
#X connect 21 0 19 0;
#X restore 105 250 pd fm_pad_panner;
#X obj 260 342 dac~;
#N canvas 0 23 618 659 fm_pad_panner 0;
#X obj 112 308 fmsynth 1 0.1;
#X obj 170 270 vline~;
#X floatatom 107 229 5 0 0 0 - - - 0;
#X obj 107 252 mtof;
#X obj 169 228 bng 15 250 50 0 empty empty empty 17 7 0 10 #fcfcfc #000000 #000000;
#X msg 170 249 1 1000 \, 0 3000 1000;
#X obj 109 133 metro;
#X obj 65 98 tgl 15 0 empty empty empty 17 7 0 10 #fcfcfc #000000 #000000 0 1;
#X floatatom 149 133 5 0 0 0 - - - 0;
#X obj 142 74 bng 15 250 50 0 empty empty empty 17 7 0 10 #fcfcfc #000000 #000000;
#X obj 109 154 bng 15 250 50 0 empty empty empty 17 7 0 10 #fcfcfc #000000 #000000;
#X obj 142 113 + 4000;
#X obj 142 92 random 3000;
#X obj 107 200 aeolian 36;
#X obj 108 177 random 28;
#X obj 64 58 loadbang;
#X msg 64 79 1;
#X obj 105 379 outlet~;
#X obj 167 380 outlet~;
#X obj 113 353 pan 0.5;
#X obj 317 59 inlet;
#X obj 113 330 *~ 0.3;
#X connect 0 0 21 0;
#X connect 1 0 0 1;
#X connect 2 0 3 0;
#X connect 2 0 4 0;
#X connect 3 0 0 0;
#X connect 4 0 5 0;
#X connect 5 0 1 0;
#X connect 6 0 10 0;
#X connect 7 0 6 0;
#X connect 9 0 12 0;
#X connect 10 0 12 0;
#X connect 10 0 14 0;
#X connect 11 0 6 1;
#X connect 11 0 8 0;
#X connect 12 0 11 0;
#X connect 13 0 2 0;
#X connect 14 0 13 0;
#X connect 15 0 16 0;
#X connect 16 0 7 0;
#X connect 19 0 17 0;
#X connect 19 1 18 0;
#X connect 20 0 19 1;
#X connect 21 0 19 0;
#X restore 246 250 pd fm_pad_panner;
#N canvas 0 23 618 659 fm_pad_panner 0;
#X obj 112 308 fmsynth 1 0.1;
#X obj 170 270 vline~;
#X floatatom 107 229 5 0 0 0 - - - 0;
#X obj 107 252 mtof;
#X obj 169 228 bng 15 250 50 0 empty empty empty 17 7 0 10 #fcfcfc #000000 #000000;
#X msg 170 249 1 1000 \, 0 3000 1000;
#X obj 109 133 metro;
#X obj 65 98 tgl 15 0 empty empty empty 17 7 0 10 #fcfcfc #000000 #000000 0 1;
#X floatatom 149 133 5 0 0 0 - - - 0;
#X obj 142 74 bng 15 250 50 0 empty empty empty 17 7 0 10 #fcfcfc #000000 #000000;
#X obj 109 154 bng 15 250 50 0 empty empty empty 17 7 0 10 #fcfcfc #000000 #000000;
#X obj 142 113 + 4000;
#X obj 142 92 random 3000;
#X obj 107 200 aeolian 36;
#X obj 108 177 random 28;
#X obj 64 58 loadbang;
#X msg 64 79 1;
#X obj 105 379 outlet~;
#X obj 167 380 outlet~;
#X obj 113 353 pan 0.5;
#X obj 317 59 inlet;
#X obj 113 330 *~ 0.3;
#X connect 0 0 21 0;
#X connect 1 0 0 1;
#X connect 2 0 3 0;
#X connect 2 0 4 0;
#X connect 3 0 0 0;
#X connect 4 0 5 0;
#X connect 5 0 1 0;
#X connect 6 0 10 0;
#X connect 7 0 6 0;
#X connect 9 0 12 0;
#X connect 10 0 12 0;
#X connect 10 0 14 0;
#X connect 11 0 6 1;
#X connect 11 0 8 0;
#X connect 12 0 11 0;
#X connect 13 0 2 0;
#X connect 14 0 13 0;
#X connect 15 0 16 0;
#X connect 16 0 7 0;
#X connect 19 0 17 0;
#X connect 19 1 18 0;
#X connect 20 0 19 1;
#X connect 21 0 19 0;
#X restore 391 254 pd fm_pad_panner;
#N canvas 0 23 618 659 fm_pad_panner 0;
#X obj 112 308 fmsynth 1 0.1;
#X obj 170 270 vline~;
#X floatatom 107 229 5 0 0 0 - - - 0;
#X obj 107 252 mtof;
#X obj 169 228 bng 15 250 50 0 empty empty empty 17 7 0 10 #fcfcfc #000000 #000000;
#X msg 170 249 1 1000 \, 0 3000 1000;
#X obj 109 133 metro;
#X obj 65 98 tgl 15 0 empty empty empty 17 7 0 10 #fcfcfc #000000 #000000 0 1;
#X floatatom 149 133 5 0 0 0 - - - 0;
#X obj 142 74 bng 15 250 50 0 empty empty empty 17 7 0 10 #fcfcfc #000000 #000000;
#X obj 109 154 bng 15 250 50 0 empty empty empty 17 7 0 10 #fcfcfc #000000 #000000;
#X obj 142 113 + 4000;
#X obj 142 92 random 3000;
#X obj 107 200 aeolian 36;
#X obj 108 177 random 28;
#X obj 64 58 loadbang;
#X msg 64 79 1;
#X obj 105 379 outlet~;
#X obj 167 380 outlet~;
#X obj 113 353 pan 0.5;
#X obj 317 59 inlet;
#X obj 113 330 *~ 0.3;
#X connect 0 0 21 0;
#X connect 1 0 0 1;
#X connect 2 0 3 0;
#X connect 2 0 4 0;
#X connect 3 0 0 0;
#X connect 4 0 5 0;
#X connect 5 0 1 0;
#X connect 6 0 10 0;
#X connect 7 0 6 0;
#X connect 9 0 12 0;
#X connect 10 0 12 0;
#X connect 10 0 14 0;
#X connect 11 0 6 1;
#X connect 11 0 8 0;
#X connect 12 0 11 0;
#X connect 13 0 2 0;
#X connect 14 0 13 0;
#X connect 15 0 16 0;
#X connect 16 0 7 0;
#X connect 19 0 17 0;
#X connect 19 1 18 0;
#X connect 20 0 19 1;
#X connect 21 0 19 0;
#X restore 544 254 pd fm_pad_panner;
#X obj 243 145 / 33;
#X obj 386 144 / 57;
#X obj 525 144 / 49;
#X msg 62 37 1;
#X obj 97 146 / 111;
#X obj 254 31 mod 4;
#X obj 255 73 bng 15 250 50 0 empty empty empty 17 7 0 10 #fcfcfc #000000 #000000;
#X obj 254 49 select 0 1 2 3;
#X obj 280 72 bng 15 250 50 0 empty empty empty 17 7 0 10 #fcfcfc #000000 #000000;
#X obj 301 72 bng 15 250 50 0 empty empty empty 17 7 0 10 #fcfcfc #000000 #000000;
#X obj 321 71 bng 15 250 50 0 empty empty empty 17 7 0 10 #fcfcfc #000000 #000000;
#N canvas 217 120 572 551 soundfilescroller 0;
#X obj 381 298 tabread4~ field-table;
#X obj 125 42 phasor~;
#X obj 125 61 *~;
#X obj 125 82 +~;
#X obj 73 78 -~ 0.5;
#X obj 74 119 cos~;
#X obj 74 98 *~ 0.5;
#X obj 367 365 outlet~;
#X obj 429 366 outlet~;
#X obj 375 339 pan 0.5;
#X obj 330 17 inlet;
#X obj 209 24 + 1;
#X obj 251 171 hsl 128 15 0 2 0 0 empty empty empty -2 -8 0 10 #fcfcfc #000000 #000000 0 1;
#X obj 217 83 + 200000;
#X obj 379 319 *~ 0.8;
#X obj 217 55 * 88200;
#X obj 335 129 line~;
#X obj 335 104 pack 0 200;
#X obj 183 246 bng 15 250 50 0 empty empty empty 17 7 0 10 #fcfcfc #000000 #000000;
#X obj 183 266 random 1e+06;
#X obj 95 267 random 88200;
#X obj 95 288 + 44100;
#X obj 181 216 moses 0.001;
#X connect 0 0 14 0;
#X connect 1 0 2 0;
#X connect 2 0 3 0;
#X connect 4 0 6 0;
#X connect 6 0 5 0;
#X connect 9 0 7 0;
#X connect 9 1 8 0;
#X connect 10 0 9 1;
#X connect 10 0 11 0;
#X connect 11 0 12 0;
#X connect 11 0 4 0;
#X connect 11 0 15 0;
#X connect 12 0 22 0;
#X connect 13 0 17 0;
#X connect 14 0 9 0;
#X connect 15 0 13 0;
#X connect 16 0 0 0;
#X connect 17 0 16 0;
#X connect 18 0 19 0;
#X connect 18 0 20 0;
#X connect 19 0 13 1;
#X connect 20 0 21 0;
#X connect 21 0 15 1;
#X connect 22 0 18 0;
#X restore 32 300 pd soundfilescroller;
#X obj 31 170 cos;
#X floatatom 31 192 7 0 0 0 - - - 0;
#X obj 30 151 / 23;
#N canvas 217 120 572 551 soundfilescroller 0;
#X obj 381 298 tabread4~ field-table;
#X obj 125 42 phasor~;
#X obj 125 61 *~;
#X obj 125 82 +~;
#X obj 73 78 -~ 0.5;
#X obj 74 119 cos~;
#X obj 74 98 *~ 0.5;
#X obj 367 365 outlet~;
#X obj 429 366 outlet~;
#X obj 375 339 pan 0.5;
#X obj 330 17 inlet;
#X obj 209 24 + 1;
#X obj 251 171 hsl 128 15 0 2 0 0 empty empty empty -2 -8 0 10 #fcfcfc #000000 #000000 0 1;
#X obj 217 83 + 200000;
#X obj 379 319 *~ 0.8;
#X obj 217 55 * 88200;
#X obj 335 129 line~;
#X obj 335 104 pack 0 200;
#X obj 183 246 bng 15 250 50 0 empty empty empty 17 7 0 10 #fcfcfc #000000 #000000;
#X obj 183 266 random 1e+06;
#X obj 95 267 random 88200;
#X obj 95 288 + 44100;
#X obj 181 216 moses 0.001;
#X connect 0 0 14 0;
#X connect 1 0 2 0;
#X connect 2 0 3 0;
#X connect 4 0 6 0;
#X connect 6 0 5 0;
#X connect 9 0 7 0;
#X connect 9 1 8 0;
#X connect 10 0 9 1;
#X connect 10 0 11 0;
#X connect 11 0 12 0;
#X connect 11 0 4 0;
#X connect 11 0 15 0;
#X connect 12 0 22 0;
#X connect 13 0 17 0;
#X connect 14 0 9 0;
#X connect 15 0 13 0;
#X connect 16 0 0 0;
#X connect 17 0 16 0;
#X connect 18 0 19 0;
#X connect 18 0 20 0;
#X connect 19 0 13 1;
#X connect 20 0 21 0;
#X connect 21 0 15 1;
#X connect 22 0 18 0;
#X restore 286 293 pd soundfilescroller;
#N canvas 335 415 572 551 soundfilescroller 0;
#X obj 381 298 tabread4~ field-table;
#X obj 125 42 phasor~;
#X obj 125 61 *~;
#X obj 125 82 +~;
#X obj 73 78 -~ 0.5;
#X obj 74 119 cos~;
#X obj 74 98 *~ 0.5;
#X obj 367 365 outlet~;
#X obj 429 366 outlet~;
#X obj 375 339 pan 0.5;
#X obj 330 17 inlet;
#X obj 209 24 + 1;
#X obj 251 171 hsl 128 15 0 2 0 0 empty empty empty -2 -8 0 10 #fcfcfc #000000 #000000 0 1;
#X obj 217 83 + 200000;
#X obj 379 319 *~ 0.8;
#X obj 217 55 * 88200;
#X obj 335 129 line~;
#X obj 335 104 pack 0 200;
#X obj 183 246 bng 15 250 50 0 empty empty empty 17 7 0 10 #fcfcfc #000000 #000000;
#X obj 183 266 random 1e+06;
#X obj 95 267 random 88200;
#X obj 95 288 + 44100;
#X obj 181 216 moses 0.001;
#X connect 0 0 14 0;
#X connect 1 0 2 0;
#X connect 2 0 3 0;
#X connect 4 0 6 0;
#X connect 6 0 5 0;
#X connect 9 0 7 0;
#X connect 9 1 8 0;
#X connect 10 0 9 1;
#X connect 10 0 11 0;
#X connect 11 0 12 0;
#X connect 11 0 4 0;
#X connect 11 0 15 0;
#X connect 12 0 22 0;
#X connect 13 0 17 0;
#X connect 14 0 9 0;
#X connect 15 0 13 0;
#X connect 16 0 0 0;
#X connect 17 0 16 0;
#X connect 18 0 19 0;
#X connect 18 0 20 0;
#X connect 19 0 13 1;
#X connect 20 0 21 0;
#X connect 21 0 15 1;
#X connect 22 0 18 0;
#X restore 452 306 pd soundfilescroller;
#X obj 465 157 cos;
#X floatatom 466 181 7 0 0 0 - - - 0;
#X obj 464 138 / 19;
#X obj 532 45 loadbang;
#X obj 532 104 soundfiler;
#N canvas 237 262 450 278 (subpatch) 0;
#X array field-table 1.323e+06 float 2;
#X coords 0 1 1.323e+06 -1 200 140 1 0 0;
#X restore 679 123 graph;
#X msg 532 73;
#X connect 0 0 4 0;
#X connect 1 0 0 0;
#X connect 2 0 0 1;
#X connect 3 0 2 0;
#X connect 3 0 25 0;
#X connect 4 0 22 0;
#X connect 4 0 23 0;
#X connect 4 0 24 0;
#X connect 4 0 26 0;
#X connect 4 0 27 0;
#X connect 4 0 36 0;
#X connect 4 0 41 0;
#X connect 5 0 6 0;
#X connect 6 0 7 0;
#X connect 7 0 17 0;
#X connect 8 0 9 0;
#X connect 9 0 10 0;
#X connect 10 0 19 0;
#X connect 10 0 37 0;
#X connect 11 0 12 0;
#X connect 12 0 13 0;
#X connect 13 0 20 0;
#X connect 14 0 15 0;
#X connect 15 0 16 0;
#X connect 16 0 21 0;
#X connect 17 0 18 0;
#X connect 17 1 18 1;
#X connect 19 0 18 0;
#X connect 19 1 18 1;
#X connect 20 0 18 0;
#X connect 20 1 18 1;
#X connect 21 0 18 0;
#X connect 21 1 18 1;
#X connect 22 0 8 0;
#X connect 23 0 11 0;
#X connect 24 0 14 0;
#X connect 25 0 1 0;
#X connect 26 0 5 0;
#X connect 27 0 29 0;
#X connect 29 0 28 0;
#X connect 29 1 30 0;
#X connect 29 2 31 0;
#X connect 29 3 32 0;
#X connect 33 0 18 0;
#X connect 33 1 18 1;
#X connect 34 0 35 0;
#X connect 35 0 33 0;
#X connect 36 0 34 0;
#X connect 37 0 18 0;
#X connect 37 1 18 1;
#X connect 38 0 18 0;
#X connect 38 1 18 1;
#X connect 39 0 40 0;
#X connect 40 0 38 0;
#X connect 41 0 39 0;
#X connect 42 0 45 0;
#X connect 45 0 43 0;
#X coords 0 -1 1 1 85 60 1 100 100;
#X restore 292 233 pd rando-soundfiles;
#N canvas 142 202 1370 752 noise-synthesizer 0;
#X obj 91 205 variable-lfo;
#X obj 38 289 osc~ 440;
#X obj 38 116 vsl 19 162 0 127 0 0 empty empty empty 0 -9 0 12 #bbbbbb #000000 #000000 0 1;
#X text 10 290 vco;
#X obj 39 385 *~;
#X obj 66 385 *~;
#X obj 84 361 osc~ 220;
#X floatatom 84 336 5 0 0 0 - - - 0;
#X text 65 317 ringmod;
#X obj 784 67 catch~;
#X obj 93 461 throw~;
#X obj 750 277 dac~;
#X obj 89 79 variable-lfo;
#X obj 89 167 * 100;
#X obj 303 199 variable-lfo;
#X obj 258 113 vsl 19 162 0 127 0 0 empty empty empty 0 -9 0 12 #bbbbbb #000000 #000000 0 1;
#X text 230 287 vco;
#X obj 302 395 *~;
#X obj 329 395 *~;
#X obj 352 371 osc~ 220;
#X floatatom 352 346 5 0 0 0 - - - 0;
#X text 333 327 ringmod;
#X obj 318 457 throw~;
#X obj 300 76 variable-lfo;
#X obj 309 159 * 100;
#X obj 552 202 variable-lfo;
#X obj 499 286 osc~ 440;
#X obj 499 113 vsl 19 162 0 127 0 0 empty empty empty 0 -9 0 12 #bbbbbb #000000 #000000 0 1;
#X text 471 287 vco;
#X obj 500 382 *~;
#X obj 527 382 *~;
#X obj 545 358 osc~ 220;
#X floatatom 545 333 5 0 0 0 - - - 0;
#X text 526 314 ringmod;
#X obj 546 454 throw~;
#X obj 550 73 variable-lfo;
#X obj 550 164 * 100;
#X obj 783 204 rev1~;
#X floatatom 801 105 5 0 0 0 - - - 0;
#X floatatom 710 132 5 0 1 0 - - - 0;
#X floatatom 829 204 5 0 1 0 - - - 0;
#X obj 783 240 *~;
#X obj 750 241 *~;
#X obj 553 416 lop~;
#X floatatom 637 409 5 0 0 0 - - - 0;
#X obj 337 419 lop~;
#X floatatom 437 396 5 0 0 0 - - - 0;
#X obj 113 424 lop~;
#X floatatom 190 399 5 0 0 0 - - - 0;
#X text 9 134 PWM;
#X text 229 131 PWM;
#X text 470 131 PWM;
#X obj 258 310 expr~ $v1 > 0.5;
#X text 697 88 Start/Stop;
#X text 865 130 Reverb On/Off;
#X text 845 106 Reverb Size;
#X obj 435 219 vsl 19 162 0 100 0 1 empty empty empty 0 -9 0 12 #fcfcfc #000000 #000000 1900 1;
#X obj 664 221 vsl 19 162 0 100 0 1 empty empty empty 0 -9 0 12 #fcfcfc #000000 #000000 900 1;
#X obj 202 207 vsl 19 162 0 100 0 1 empty empty empty 0 -9 0 12 #fcfcfc #000000 #000000 1700 1;
#X obj 856 69 hsl 162 19 0 100 0 1 empty empty empty -2 -10 0 12 #fcfcfc #000000 #000000 2600 1;
#X obj 989 121 vsl 19 162 0 1 0 1 empty empty empty 0 -9 0 12 #fcfcfc #000000 #000000 16100 1;
#X obj 1019 123 vsl 19 162 0 1 0 1 empty empty empty 0 -9 0 12 #fcfcfc #000000 #000000 9300 1;
#X text 997 100 D;
#X text 1027 101 W;
#X obj 258 288 phasor~;
#X obj 481 594 mtof;
#X obj 652 545 trigger float bang bang;
#X obj 900 262 tgl 19 0 empty empty empty 0 -10 0 12 #fcfcfc #000000 #000000 0 1;
#X obj 897 336 bng 19 250 50 0 empty empty empty 0 -10 0 12 #fcfcfc #000000 #000000;
#X obj 975 400 delay 500;
#X obj 1060 400 delay 1000;
#X obj 898 298 metro 2000;
#X obj 1130 469 delay 1500;
#X obj 1077 283 vsl 20 50 0 500 0 0 empty empty empty 0 -9 0 12 #fcfcfc #000000 #000000 0 1;
#X obj 1114 284 vsl 20 50 0 1000 0 0 empty empty empty 0 -9 0 12 #fcfcfc #000000 #000000 0 1;
#X obj 1151 284 vsl 20 50 0 1500 0 0 empty empty empty 0 -9 0 12 #fcfcfc #000000 #000000 0 1;
#X obj 938 341 delay 500;
#X obj 1184 285 vsl 20 50 0 500 0 0 empty empty empty 0 -9 0 12 #fcfcfc #000000 #000000 0 1;
#X obj 935 562 delay 1000;
#X obj 1071 574 vsl 20 50 0 1000 0 0 empty empty empty 0 -9 0 12 #fcfcfc #000000 #000000 0 1;
#X obj 977 647 vsl 20 50 0 2 0 0 empty empty empty 0 -9 0 12 #fcfcfc #000000 #000000 0 1;
#X msg 844 682 0.5;
#X msg 891 682 0.8;
#X floatatom 719 478 5 0 0 0 - - - 0;
#X obj 719 394 hradio 19 1 0 11 empty empty empty 0 -10 0 12 #fcfcfc #000000 #000000 0;
#X floatatom 758 478 5 0 0 0 - - - 0;
#X floatatom 797 478 5 0 0 0 - - - 0;
#X floatatom 836 478 5 0 0 0 - - - 0;
#X obj 719 415 hradio 19 1 0 11 empty empty empty 0 -10 0 12 #fcfcfc #000000 #000000 0;
#X obj 719 436 hradio 19 1 0 11 empty empty empty 0 -10 0 12 #fcfcfc #000000 #000000 0;
#X obj 719 457 hradio 19 1 0 11 empty empty empty 0 -10 0 12 #fcfcfc #000000 #000000 0;
#X obj 685 394 * 10;
#X obj 685 417 * 10;
#X obj 685 440 * 10;
#X obj 685 463 * 10;
#X obj 1050 123 vsl 19 162 0 2000 0 0 empty empty empty 0 -9 0 12 #fcfcfc #000000 #000000 0 1;
#X text 1074 154 seq speed;
#X connect 0 0 1 1;
#X connect 1 0 4 0;
#X connect 1 0 5 0;
#X connect 2 0 1 0;
#X connect 4 0 47 0;
#X connect 5 0 47 0;
#X connect 6 0 4 1;
#X connect 6 0 5 1;
#X connect 7 0 6 0;
#X connect 9 0 37 0;
#X connect 9 0 42 0;
#X connect 12 0 13 0;
#X connect 13 0 2 0;
#X connect 14 0 64 1;
#X connect 15 0 19 1;
#X connect 15 0 64 0;
#X connect 17 0 45 0;
#X connect 18 0 45 0;
#X connect 19 0 17 1;
#X connect 19 0 18 1;
#X connect 20 0 19 0;
#X connect 23 0 24 0;
#X connect 24 0 15 0;
#X connect 25 0 26 1;
#X connect 26 0 29 0;
#X connect 26 0 30 0;
#X connect 27 0 26 0;
#X connect 29 0 43 0;
#X connect 30 0 43 0;
#X connect 31 0 29 1;
#X connect 31 0 30 1;
#X connect 32 0 31 0;
#X connect 35 0 36 0;
#X connect 36 0 27 0;
#X connect 37 0 41 0;
#X connect 38 0 37 1;
#X connect 39 0 42 1;
#X connect 40 0 41 1;
#X connect 41 0 11 1;
#X connect 41 0 11 0;
#X connect 42 0 11 1;
#X connect 42 0 11 0;
#X connect 43 0 34 0;
#X connect 44 0 43 1;
#X connect 45 0 22 0;
#X connect 46 0 45 1;
#X connect 47 0 10 0;
#X connect 48 0 47 1;
#X connect 52 0 17 0;
#X connect 52 0 18 0;
#X connect 56 0 46 0;
#X connect 57 0 44 0;
#X connect 58 0 48 0;
#X connect 59 0 38 0;
#X connect 60 0 39 0;
#X connect 61 0 40 0;
#X connect 64 0 52 0;
#X connect 65 0 1 0;
#X connect 65 0 64 0;
#X connect 65 0 26 0;
#X connect 65 0 7 0;
#X connect 65 0 20 0;
#X connect 65 0 32 0;
#X connect 66 0 65 0;
#X connect 66 1 78 0;
#X connect 66 2 82 0;
#X connect 67 0 71 0;
#X connect 68 0 69 0;
#X connect 68 0 70 0;
#X connect 68 0 72 0;
#X connect 68 0 76 0;
#X connect 69 0 88 0;
#X connect 70 0 89 0;
#X connect 71 0 68 0;
#X connect 72 0 90 0;
#X connect 73 0 69 1;
#X connect 74 0 70 1;
#X connect 75 0 72 1;
#X connect 76 0 84 0;
#X connect 77 0 76 1;
#X connect 78 0 81 0;
#X connect 79 0 78 1;
#X connect 81 0 80 0;
#X connect 81 0 4 1;
#X connect 81 0 17 1;
#X connect 81 0 29 1;
#X connect 82 0 80 0;
#X connect 82 0 4 1;
#X connect 82 0 17 1;
#X connect 82 0 29 1;
#X connect 83 0 66 0;
#X connect 84 0 91 0;
#X connect 85 0 66 0;
#X connect 86 0 66 0;
#X connect 87 0 66 0;
#X connect 88 0 92 0;
#X connect 89 0 93 0;
#X connect 90 0 94 0;
#X connect 91 0 83 0;
#X connect 92 0 85 0;
#X connect 93 0 86 0;
#X connect 94 0 87 0;
#X connect 95 0 71 1;
#X restore 298 345 pd noise-synthesizer;
#N canvas 997 447 685 617 hearbeat 0;
#X obj 129 499 *~;
#X obj 129 549 dac~;
#X obj 112 131 hsl 128 15 0 400 0 0 empty empty empty -2 -6 0 8 #fcfcfc #000000 #000000 0 1;
#X obj 204 293 vline~;
#X obj 204 316 cos~;
#X obj 276 146 f;
#X obj 311 145 mod 8;
#X obj 363 144 + 1;
#X obj 220 108 tgl 15 0 empty empty empty 0 -6 0 8 #fcfcfc #000000 #000000 0 1;
#X obj 267 188 select 1 3;
#X obj 276 121 metro 100;
#X obj 203 402 *~;
#X obj 204 379 *~;
#X obj 205 357 *~;
#X obj 52 333 noise~;
#X obj 53 361 bp~ 100 2;
#X obj 89 445 vcf~ 200;
#X msg 204 271 0.25 0 0 \, 0.75 \$1 0;
#X obj 304 239 f 100;
#X obj 128 522 clip~ -1 1;
#X obj 53 387 *~ 50;
#X obj 111 419 +~ 50;
#X obj 111 398 *~ 60;
#X obj 255 77 loadbang;
#X connect 0 0 19 0;
#X connect 2 0 10 1;
#X connect 2 0 18 1;
#X connect 3 0 4 0;
#X connect 4 0 13 0;
#X connect 4 0 13 1;
#X connect 5 0 6 0;
#X connect 5 0 9 0;
#X connect 6 0 7 0;
#X connect 7 0 5 1;
#X connect 8 0 10 0;
#X connect 9 0 18 0;
#X connect 9 1 18 0;
#X connect 10 0 5 0;
#X connect 12 0 11 0;
#X connect 12 0 11 1;
#X connect 12 0 0 1;
#X connect 13 0 12 0;
#X connect 13 0 12 1;
#X connect 13 0 22 0;
#X connect 14 0 15 0;
#X connect 15 0 20 0;
#X connect 16 0 0 0;
#X connect 17 0 3 0;
#X connect 18 0 17 0;
#X connect 19 0 1 0;
#X connect 19 0 1 1;
#X connect 20 0 16 0;
#X connect 21 0 16 1;
#X connect 22 0 21 0;
#X connect 23 0 10 0;
#X coords 0 -1 1 1 150 50 1 100 100;
#X restore 13 236 pd hearbeat;
#X text 9 209 Stage 1 (When the game starts;
#X obj 296 414 sea_waves;
#X text 282 209 Stage 3 or 4 (Forest or Beach;
#X connect 2 0 7 0;
#X connect 3 0 6 0;
#X connect 5 0 2 0;
#X connect 5 0 3 0;
#X connect 9 0 14 0;
#X connect 10 0 13 0;
#X connect 12 0 9 0;
#X connect 12 0 10 0;
#X connect 16 0 21 0;
#X connect 17 0 20 0;
#X connect 19 0 16 0;
#X connect 19 0 17 0;
