#N canvas 73 85 951 683 10;
#X obj 15 93 noise~;
#X obj 180 636 dac~;
#X obj 809 454 loadbang;
#X obj 390 174 cnoise1~;
#X text 399 241 (wind);
#N canvas 69 18 458 358 fft 0;
#X obj 19 62 inlet~;
#X obj 85 214 inlet;
#X obj 19 92 rfft~;
#X obj 19 125 *~;
#X obj 50 125 *~;
#X obj 19 155 sqrt~;
#X obj 332 109 block~ 4096 1;
#X obj 19 181 biquad~ 0 0 0 0 1;
#X text 83 93 Fourier series;
#X text 88 146 magnitude;
#X text 86 131 calculate;
#X text 21 3 This subpatch computes the spectrum of the incoming signal
with a (rectangular windowed) FFT. FFTs aren't properly introduced
until much later.;
#X text 83 62 signal to analyze;
#X text 182 166 delay two samples;
#X text 181 182 for better graphing;
#X text 135 216 "bang" into this inlet to graph it;
#X obj 85 248 tabwrite~ wavespectrum;
#X connect 0 0 2 0;
#X connect 1 0 16 0;
#X connect 2 0 3 0;
#X connect 2 0 3 1;
#X connect 2 1 4 0;
#X connect 2 1 4 1;
#X connect 3 0 5 0;
#X connect 4 0 5 0;
#X connect 5 0 7 0;
#X connect 7 0 16 0;
#X restore 268 599 pd fft;
#X obj 586 433 metro 100;
#X msg 583 394 0;
#X msg 620 393 1;
#X obj 389 371 *~;
#X obj 257 370 *~;
#X obj 15 362 *~;
#X obj 577 15 cnv 15 250 180 empty empty SeaMixer 20 12 0 14 -233017
-66577 0;
#N canvas 507 9 510 683 wave1 0;
#X obj 112 346 *~;
#X obj 132 269 bng 15 250 50 0 empty empty empty 0 -6 0 8 -262144 -1
-1;
#X obj 176 447 sig~;
#X floatatom 262 465 5 0 0 0 - - -;
#X obj 114 498 vcf~ 1;
#X obj 112 587 *~ 0.71;
#X msg 246 390 400;
#X obj 143 143 t b b;
#X msg 194 269 2600;
#X text 180 481 long;
#X msg 158 269 1200;
#X obj 202 177 random 1000;
#X obj 113 11 inlet~;
#X obj 206 72 inlet;
#X obj 111 628 outlet~;
#X obj 328 219 loadbang;
#X obj 132 306 az_vad~;
#X obj 27 104 spigot;
#X obj 113 547 *~;
#X obj 158 526 tgl 15 0 empty empty empty 0 -6 0 8 -262144 -1 -1 0
1;
#X obj 24 341 del 3800;
#X obj 202 202 + 3800;
#X obj 143 226 del 3800;
#X obj 176 418 line;
#X obj 24 268 t b b b;
#X msg 24 386 400;
#X msg 176 390 800 1200;
#X obj 310 39 r density;
#X obj 310 101 * 1000;
#X floatatom 347 152 5 0 0 0 - - -;
#X connect 0 0 4 0;
#X connect 1 0 16 0;
#X connect 1 0 17 0;
#X connect 2 0 4 1;
#X connect 4 0 18 0;
#X connect 5 0 14 0;
#X connect 6 0 23 1;
#X connect 7 0 22 0;
#X connect 7 1 11 0;
#X connect 8 0 16 2;
#X connect 10 0 16 1;
#X connect 11 0 21 0;
#X connect 12 0 0 0;
#X connect 13 0 7 0;
#X connect 13 0 17 1;
#X connect 15 0 10 0;
#X connect 15 0 8 0;
#X connect 15 0 6 0;
#X connect 16 0 0 1;
#X connect 17 0 7 0;
#X connect 18 0 5 0;
#X connect 19 0 18 1;
#X connect 20 0 19 0;
#X connect 20 0 25 0;
#X connect 21 0 22 1;
#X connect 22 0 1 0;
#X connect 22 0 24 0;
#X connect 23 0 3 0;
#X connect 23 0 2 0;
#X connect 24 0 20 0;
#X connect 24 1 19 0;
#X connect 24 2 26 0;
#X connect 25 0 23 0;
#X connect 26 0 23 0;
#X connect 27 0 28 0;
#X connect 28 0 11 1;
#X connect 28 0 29 0;
#X restore 15 240 pd wave1;
#N canvas 0 0 553 679 wave3 0;
#X obj 170 325 *~;
#X obj 251 420 sig~;
#X obj 169 463 vcf~ 1;
#X obj 189 230 bng 15 250 50 0 empty empty empty 0 -6 0 8 -262144 -1
-1;
#X msg 306 390 220;
#X obj 215 105 t b b;
#X obj 274 128 random 2000;
#X msg 214 229 800;
#X msg 250 229 3500;
#X obj 189 272 az_vad~;
#X obj 168 586 hip~ 350;
#X obj 169 558 *~ 5.6;
#X obj 171 9 inlet~;
#X obj 272 44 inlet;
#X obj 167 624 outlet~;
#X obj 459 184 loadbang;
#X obj 62 86 spigot;
#X obj 169 511 *~;
#X obj 210 497 tgl 15 0 empty empty empty 0 -6 0 8 -262144 -1 -1 0
1;
#X obj 43 265 del 4300;
#X obj 215 177 del 4300;
#X obj 274 153 + 4300;
#X obj 252 386 line;
#X obj 43 228 t b b b;
#X msg 43 315 220;
#X msg 252 358 400 1600;
#X floatatom 330 472 5 0 0 0 - - -;
#X obj 383 17 r density;
#X obj 383 79 * 1000;
#X floatatom 414 125 9 0 0 0 - - -;
#X connect 0 0 2 0;
#X connect 1 0 2 1;
#X connect 2 0 17 0;
#X connect 3 0 9 0;
#X connect 3 0 16 0;
#X connect 4 0 1 0;
#X connect 5 0 20 0;
#X connect 5 1 6 0;
#X connect 6 0 21 0;
#X connect 7 0 9 1;
#X connect 8 0 9 2;
#X connect 9 0 0 1;
#X connect 10 0 14 0;
#X connect 11 0 10 0;
#X connect 12 0 0 0;
#X connect 13 0 5 0;
#X connect 13 0 16 1;
#X connect 15 0 7 0;
#X connect 15 0 8 0;
#X connect 15 0 4 0;
#X connect 16 0 5 0;
#X connect 17 0 11 0;
#X connect 18 0 17 1;
#X connect 19 0 18 0;
#X connect 19 0 24 0;
#X connect 20 0 3 0;
#X connect 20 0 23 0;
#X connect 21 0 20 1;
#X connect 22 0 1 0;
#X connect 22 0 26 0;
#X connect 23 0 19 0;
#X connect 23 1 18 0;
#X connect 23 2 25 0;
#X connect 24 0 22 0;
#X connect 25 0 22 0;
#X connect 27 0 28 0;
#X connect 28 0 6 1;
#X connect 28 0 29 0;
#X restore 258 242 pd wave3;
#N canvas 0 0 503 683 wave2 1;
#X obj 148 308 *~;
#X obj 178 414 sig~;
#X obj 149 468 vcf~ 1;
#X obj 166 220 bng 15 250 50 0 empty empty empty 0 -6 0 8 -262144 -1
-1;
#X msg 266 366 295;
#X obj 221 81 t b b;
#X obj 221 158 del 3600;
#X obj 280 134 + 3600;
#X text 284 219 short burst;
#X text 224 254 replacement for ead;
#X obj 147 586 hip~ 500;
#X msg 228 218 2100;
#X obj 148 557 *~ 3.1;
#X msg 192 218 450;
#X obj 280 109 random 4000;
#X obj 149 8 inlet~;
#X obj 279 23 inlet;
#X obj 147 623 outlet~;
#X obj 415 159 loadbang;
#X obj 167 254 az_vad~;
#X obj 48 60 spigot;
#X obj 148 516 *~;
#X obj 193 495 tgl 15 0 empty empty empty 0 -6 0 8 -262144 -1 -1 0
1;
#X obj 48 307 del 2550;
#X obj 48 270 t b b b;
#X floatatom 260 444 5 0 0 0 - - -;
#X obj 178 383 line;
#X msg 48 344 295;
#X msg 178 355 1100 400;
#X obj 396 17 r density;
#X obj 396 79 * 1000;
#X floatatom 414 122 5 0 0 0 - - -;
#X floatatom 412 44 5 0 0 0 - - -;
#X connect 0 0 2 0;
#X connect 1 0 2 1;
#X connect 2 0 21 0;
#X connect 3 0 19 0;
#X connect 3 0 20 0;
#X connect 4 0 1 0;
#X connect 5 0 6 0;
#X connect 5 1 14 0;
#X connect 6 0 3 0;
#X connect 6 0 24 0;
#X connect 7 0 6 1;
#X connect 10 0 17 0;
#X connect 11 0 19 2;
#X connect 12 0 10 0;
#X connect 13 0 19 1;
#X connect 14 0 7 0;
#X connect 15 0 0 0;
#X connect 16 0 5 0;
#X connect 16 0 20 1;
#X connect 18 0 13 0;
#X connect 18 0 11 0;
#X connect 18 0 4 0;
#X connect 19 0 0 1;
#X connect 20 0 5 0;
#X connect 21 0 12 0;
#X connect 22 0 21 1;
#X connect 23 0 22 0;
#X connect 23 0 27 0;
#X connect 24 0 23 0;
#X connect 24 1 22 0;
#X connect 24 2 28 0;
#X connect 26 0 1 0;
#X connect 26 0 25 0;
#X connect 27 0 26 0;
#X connect 28 0 26 0;
#X connect 29 0 30 0;
#X connect 29 0 32 0;
#X connect 30 0 14 1;
#X connect 30 0 31 0;
#X restore 139 240 pd wave2;
#X obj 138 367 *~;
#X text 400 264 constant background noise;
#X obj 408 314 r bkgnl;
#X obj 276 313 r w3l;
#X obj 157 312 r w2l;
#X obj 34 314 r w1l;
#X obj 331 8 tgl 15 0 empty empty empty 0 -6 0 8 -262144 -1 -1 0 1
;
#X obj 596 62 hsl 128 15 0 1 0 0 w1l w1lr wave1 -2 6 0 8 -62784 -241291
-258699 2540 1;
#X obj 596 89 hsl 128 15 0 1 0 0 w2l w2lr wave2 -2 6 0 8 -62784 -241291
-258699 1270 1;
#X obj 596 114 hsl 128 15 0 1 0 0 w3l w3lr wave3 -2 6 0 8 -62784 -241291
-258699 6350 1;
#X obj 743 63 hsl 64 15 0 1 0 0 w1p w1pr w1_pan -2 6 0 8 -62784 -241291
-258699 2835 1;
#X obj 743 90 hsl 64 15 0 1 0 0 w2p w2pr w2_pan -2 6 0 8 -62784 -241291
-258699 3465 1;
#X obj 743 116 hsl 64 15 0 1 0 0 w3p w3pr w3_pan -2 6 0 8 -62784 -241291
-258699 3150 1;
#X obj 577 212 cnv 15 250 160 empty empty SeaSpectrum 20 12 0 14 -233017
-66577 0;
#X text 675 395 <- graph on/off;
#N canvas 0 0 450 300 graph1 0;
#X array wavespectrum 128 float 0;
#X coords 0 150 127 -20 220 100 1;
#X restore 592 254 graph;
#X obj 596 139 hsl 128 15 0 1 0 0 bkgnl bkgnlr bkg -2 6 0 8 -62784
-241291 -258699 2540 1;
#X msg 441 52 \; pd dsp 1;
#X msg 441 95 \; pd dsp 0;
#X obj 15 424 panner1;
#X obj 307 399 r w3p;
#X obj 188 398 r w2p;
#X obj 66 397 r w1p;
#X obj 137 425 panner1;
#X obj 256 427 panner1;
#X obj 268 523 catch~ sumbus_R;
#X obj 140 524 catch~ sumbus_L;
#X obj 388 428 panner1;
#X obj 439 394 r bkgp;
#X obj 743 141 hsl 64 15 0 1 0 0 bkgp bkgpr bkg_pan -2 6 0 8 -62784
-241291 -258699 3150 1;
#X obj 390 289 lop~ 600;
#X obj 269 562 hip~ 20;
#X obj 141 564 hip~ 20;
#X text 363 6 <- on/off;
#X text 14 27 Beach ambient generator. AZ 2007;
#X text 15 7 Sea waves.;
#X obj 596 166 hsl 128 15 1 15 0 0 density densityr density -2 6 0
8 -62784 -241291 -258699 10100 1;
#X msg 809 499 \; w1lr 0.2 \; w2lr 0.1 \; w3lr 0.5 \; bkgnlr 0.2 \;
w1pr 0.45 \; w2pr 0.55 \; w3pr 0.5 \; bkgpr 0.5 \; cn_alpha 1.28 \;
cn_lvl 73 \; density 12 \;;
#X connect 0 0 13 0;
#X connect 0 0 15 0;
#X connect 0 0 3 0;
#X connect 2 0 53 0;
#X connect 3 0 46 0;
#X connect 3 0 14 0;
#X connect 6 0 5 1;
#X connect 7 0 6 0;
#X connect 8 0 6 0;
#X connect 9 0 43 0;
#X connect 10 0 40 0;
#X connect 11 0 35 0;
#X connect 13 0 11 0;
#X connect 14 0 10 0;
#X connect 15 0 16 0;
#X connect 16 0 39 0;
#X connect 18 0 9 1;
#X connect 19 0 10 1;
#X connect 20 0 16 1;
#X connect 21 0 11 1;
#X connect 22 0 13 1;
#X connect 22 0 15 1;
#X connect 22 0 14 1;
#X connect 22 0 3 1;
#X connect 36 0 40 1;
#X connect 37 0 39 1;
#X connect 38 0 35 1;
#X connect 41 0 47 0;
#X connect 42 0 48 0;
#X connect 44 0 43 1;
#X connect 46 0 9 0;
#X connect 47 0 1 1;
#X connect 47 0 5 0;
#X connect 48 0 1 0;
#X connect 48 0 5 0;
