#N canvas 688 252 1280 704 12;
#N canvas 591 108 1280 704 LFO 0;
#X obj 339 142 loadbang;
#X obj 339 175 tgl 19 0 empty empty empty 0 -10 0 12 #fcfcfc #000000 #000000 0 1;
#X obj 341 214 metro 10;
#X obj 294 375 outlet;
#X connect 0 0 1 0;
#X connect 1 0 2 0;
#X connect 2 0 3 0;
#X restore 299 67 pd LFO Speed;
#N canvas 0 25 1280 704 LFO 0;
#X obj 185 321 outlet~;
#X obj 276 145 inlet;
#X obj 208 224 osc~ 2;
#X connect 1 0 2 0;
#X connect 2 0 0 0;
#X restore 316 99 pd LFO Frequency;
#X obj 104 149 hsl 90 20 0 1 0 0 empty empty empty -2 -10 0 12 #bbbbbb #404040 #000000 0 1;
#X obj 104 122 hsl 90 20 0 12 0 1 empty empty empty -2 -10 0 12 #bbbbbb #404040 #000000 700 1;
#X text 434 155 Output;
#X obj 313 195 outlet;
#X obj 299 137 snapshot~ \$0-variable-lfo3;
#X obj 100 175 hradio 10 1 0 10 empty empty empty 0 -10 0 12 #bbbbbb #c6ffc7 #000000 0;
#X connect 0 0 6 0;
#X connect 1 0 6 0;
#X connect 2 0 5 0;
#X connect 3 0 1 0;
#X connect 6 0 2 0;
#X connect 7 0 1 0;
#X coords 0 -1 1 1 100 90 1 100 100;
