#N canvas 269 462 683 668 12;
#X obj 179 127 vsl 19 140 0 30 0 1 empty empty Atk 0 -9 0 12 #ffc7c6 #000000 #000000 2800 1;
#X floatatom 130 136 5 0 0 0 Atk - - 0;
#X obj 203 127 vsl 19 140 0 300 0 1 empty empty Dec 0 -9 0 12 #ffe3c6 #000000 #000000 1600 1;
#X floatatom 130 160 5 0 0 0 Dec - - 0;
#X obj 227 127 vsl 19 140 0 300 0 1 empty empty Sus 0 -9 0 12 #c6ffc7 #000000 #000000 4600 1;
#X floatatom 130 184 5 0 0 0 Sus - - 0;
#X obj 251 127 vsl 19 140 0 300 0 1 empty empty Rel 0 -9 0 12 #c6feff #000000 #000000 12800 1;
#X floatatom 130 210 5 0 0 0 Rls - - 0;
#X obj 283 127 vsl 19 140 0 1 0 1 empty empty Val 0 -9 0 12 #dfdfdf #000000 #000000 13900 1;
#X floatatom 129 251 5 0 0 0 Val - - 0;
#X obj 138 410 vline~;
#X text 228 630 https://forum.pdpatchrepo.info/topic/9119/vline-to-array/6;
#X obj 103 299 inlet;
#X obj 138 460 outlet~;
#X text 111 108 ENV.GEN;
#X obj 138 434 *~;
#X obj 80 326 bng 19 250 50 0 empty empty empty 0 -10 0 12 #fcfcfc #000000 #000000;
#X obj 138 354 pack f f f f f;
#X msg 138 381 1 \$1 0 \, \$4 \$2 \$1 \, 0 \$3 \$5;
#X floatatom 219 323 5 0 0 0 - - - 0;
#X obj 219 299 expr $f1 + $f2 + $f3;
#X obj 389 382 outlet;
#X connect 0 0 1 0;
#X connect 1 0 17 0;
#X connect 1 0 20 0;
#X connect 2 0 3 0;
#X connect 3 0 17 1;
#X connect 3 0 20 1;
#X connect 4 0 5 0;
#X connect 5 0 20 2;
#X connect 6 0 7 0;
#X connect 7 0 17 2;
#X connect 8 0 9 0;
#X connect 9 0 17 3;
#X connect 9 0 21 0;
#X connect 10 0 15 0;
#X connect 10 0 15 1;
#X connect 12 0 16 0;
#X connect 15 0 13 0;
#X connect 16 0 17 0;
#X connect 16 0 20 0;
#X connect 17 0 18 0;
#X connect 18 0 10 0;
#X connect 19 0 17 4;
#X connect 20 0 19 0;
#X coords 0 -1 1 1 210 180 2 100 100;
