#N canvas 74 387 580 493 12;
#X obj 68 390 *~ 0.5;
#X obj 68 342 *~;
#X obj 129 72 r \$0-file_duration;
#X floatatom 129 100 9 0 0 0 - - - 0;
#X obj 212 151 loadbang;
#X obj 212 184 samplerate~;
#X obj 156 303 r \$0-file_duration;
#X floatatom 68 245 8 0 0 0 - - - 0;
#X obj 281 151 bng 19 250 50 0 empty empty empty 0 -10 0 12 #fcfcfc #000000 #000000;
#X floatatom 131 155 5 0 0 0 - - - 0;
#X obj 68 72 bng 19 250 50 0 empty empty empty 0 -10 0 12 #fcfcfc #000000 #000000;
#X obj 68 130 f, f 4;
#X obj 68 184 / 1, f 4;
#X msg 68 268 0 \, 1 \$1;
#X obj 68 292 line~;
#X obj 68 221 expr 1000 * $f1 / $f2;
#X obj 373 253 openpanel;
#X obj 372 365 soundfiler;
#X floatatom 372 389 10 0 0 0 len - - 0;
#X obj 373 226 bng 19 250 50 0 empty empty empty 0 -10 0 12 #fcfcfc #000000 #000000;
#N canvas 0 22 450 278 (subpatch) 0;
#X array \$0-sample 12588 float 2;
#X coords 0 1 12588 -1 200 140 1;
#X restore 329 47 graph;
#X obj 372 412 s \$0-file_duration;
#X obj 68 37 inlet;
#X obj 68 414 outlet~;
#X obj 322 230 inlet;
#X obj 322 254 symbol;
#X obj 373 308 list append \$0-sample;
#X msg 373 284 read -resize \$1;
#X obj 373 332 route list;
#X obj 68 366 tabread4~ \$0-sample;
#X obj 131 129 inlet;
#X connect 0 0 23 0;
#X connect 1 0 29 0;
#X connect 2 0 3 0;
#X connect 3 0 11 1;
#X connect 4 0 5 0;
#X connect 5 0 15 1;
#X connect 6 0 1 1;
#X connect 7 0 13 0;
#X connect 8 0 5 0;
#X connect 9 0 12 1;
#X connect 10 0 11 0;
#X connect 11 0 12 0;
#X connect 12 0 15 0;
#X connect 13 0 14 0;
#X connect 14 0 1 0;
#X connect 15 0 7 0;
#X connect 16 0 27 0;
#X connect 17 0 18 0;
#X connect 18 0 21 0;
#X connect 19 0 16 0;
#X connect 22 0 10 0;
#X connect 24 0 25 0;
#X connect 25 0 27 0;
#X connect 26 0 28 0;
#X connect 27 0 26 0;
#X connect 28 0 17 0;
#X connect 29 0 0 0;
#X connect 30 0 9 0;
