#N canvas 204 554 1512 407 12;
#X text 538 12 This is the backend \, where three members will be controlling;
#X text 1155 45 Sample Space;
#N canvas 0 22 450 278 (subpatch) 0;
#X array Sample\ 1 347904 float 2;
#X coords 0 1 347904 -1 200 140 1 0 0;
#X restore 816 116 graph;
#X obj 821 286 hsl 180 19 0 347904 0 0 start empty empty -2 -10 0 12 #c6feff #000000 #000000 0 1;
#X obj 822 313 hsl 180 19 0 347904 0 0 empty empty empty -2 -10 0 12 #ffc7c6 #000000 #000000 0 1;
#X obj 968 260 bng 19 250 50 0 go empty empty 0 -10 0 12 #e3c6ff #000000 #000000;
#X msg 817 262 range 0 \$1;
#X obj 964 335 s end;
#X obj 818 335 s start;
#N canvas 208 246 450 278 (subpatch) 0;
#X array Sample\ 2 347904 float 2;
#X coords 0 1 347904 -1 200 140 1 0 0;
#X restore 1037 116 graph;
#X obj 1042 286 hsl 180 19 0 347904 0 0 start empty empty -2 -10 0 12 #c6feff #000000 #000000 0 1;
#X obj 1043 313 hsl 180 19 0 347904 0 0 empty empty empty -2 -10 0 12 #ffc7c6 #000000 #000000 0 1;
#X obj 1189 260 bng 19 250 50 0 go empty empty 0 -10 0 12 #e3c6ff #000000 #000000;
#X msg 1038 262 range 0 \$1;
#X obj 1185 335 s end;
#X obj 1039 335 s start;
#N canvas 0 22 450 278 (subpatch) 0;
#X array Sample\ 3 347904 float 2;
#X coords 0 1 347904 -1 200 140 1 0 0;
#X restore 1251 116 graph;
#X obj 1256 286 hsl 180 19 0 347904 0 0 start empty empty -2 -10 0 12 #c6feff #000000 #000000 0 1;
#X obj 1257 313 hsl 180 19 0 347904 0 0 empty empty empty -2 -10 0 12 #ffc7c6 #000000 #000000 0 1;
#X obj 1403 260 bng 19 250 50 0 go empty empty 0 -10 0 12 #e3c6ff #000000 #000000;
#X msg 1252 262 range 0 \$1;
#X obj 1399 335 s end;
#X obj 1253 335 s start;
#X text 300 47 Synthesizers;
#X connect 3 0 8 0;
#X connect 4 0 7 0;
#X connect 6 0 3 0;
#X connect 6 0 4 0;
#X connect 10 0 15 0;
#X connect 11 0 14 0;
#X connect 13 0 10 0;
#X connect 13 0 11 0;
#X connect 17 0 22 0;
#X connect 18 0 21 0;
#X connect 20 0 17 0;
#X connect 20 0 18 0;
