#N canvas 0 38 1206 841 12;
#X obj 15 14 tgl 19 0 empty empty empty 0 -10 0 12 #00ffdd #000000 #000000 0 1;
#N canvas 1062 583 450 300 counter 1;
#X obj 69 9 inlet;
#X obj 69 45 tgl 19 0 empty empty empty 0 -10 0 12 #fcfcfc #000000 #000000 0 1;
#X obj 158 9 inlet;
#X obj 82 118 bng 19 250 50 0 empty empty empty 0 -10 0 12 #fcfcfc #000000 #000000;
#X obj 70 147 f;
#X obj 120 147 + 1;
#X floatatom 70 181 5 0 0 0 - - - 0;
#X obj 70 272 s counter_output;
#X obj 69 243 hradio 19 1 0 4 empty empty empty 0 -10 0 12 #bbbbbb #000000 #000000 0;
#X obj 71 210 % 4;
#X obj 209 98 f;
#X obj 208 63 bng 19 250 50 0 empty empty empty 0 -10 0 12 #c6feff #000000 #000000;
#X obj 264 98 - 1;
#X floatatom 240 167 5 0 0 0 - - - 0;
#X obj 69 84 metro;
#X obj 208 30 metro 250;
#X msg 266 68 1500;
#X obj 233 129 expr if ($f1 < 1300 \, 1300 \, $f1);
#X connect 0 0 1 0;
#X connect 1 0 14 0;
#X connect 1 0 15 0;
#X connect 2 0 15 1;
#X connect 4 0 5 0;
#X connect 4 0 6 0;
#X connect 5 0 4 1;
#X connect 6 0 9 0;
#X connect 8 0 7 0;
#X connect 9 0 8 0;
#X connect 10 0 12 0;
#X connect 10 0 17 0;
#X connect 11 0 10 0;
#X connect 12 0 10 1;
#X connect 14 0 3 0;
#X connect 14 0 4 0;
#X connect 15 0 11 0;
#X connect 16 0 10 0;
#X connect 17 0 13 0;
#X connect 17 0 14 1;
#X restore 14 43 pd counter;
#X obj 64 102 r counter_output;
#X obj 79 173 bng 19 250 50 0 empty empty empty 0 -10 0 12 #feffc6 #000000 #000000;
#X obj 106 172 tgl 19 0 empty empty empty 0 -10 0 12 #feffc6 #000000 #000000 0 1;
#X obj 79 198 spigot;
#X obj 79 226 bng 19 250 50 0 yellow empty empty 0 -10 0 12 #feffc6 #000000 #000000;
#X obj 205 171 bng 19 250 50 0 start empty empty 0 -10 0 12 #c6ffc7 #000000 #000000;
#X obj 232 170 tgl 19 0 empty empty empty 0 -10 0 12 #c6ffc7 #000000 #000000 0 1;
#X obj 205 196 spigot;
#X obj 205 224 bng 19 250 50 0 green empty empty 0 -10 0 12 #c6ffc7 #000000 #000000;
#X obj 999 157 vline~;
#X obj 1000 193 osc~;
#X obj 1004 9 r wave;
#X obj 1001 255 dac~;
#X obj 19 172 bng 19 250 50 0 empty empty empty 0 -10 0 12 #ffe3c6 #000000 #000000;
#X obj 46 171 tgl 19 0 empty empty empty 0 -10 0 12 #ffe3c6 #000000 #000000 0 1;
#X obj 19 197 spigot;
#X obj 19 226 bng 19 250 50 0 orange empty empty 0 -10 0 12 #ffe3c6 #000000 #000000;
#X obj 65 133 select 0 1 2;
#X obj 137 172 bng 19 250 50 0 empty empty empty 0 -10 0 12 #ffc7c6 #000000 #000000;
#X obj 164 171 tgl 19 0 empty empty empty 0 -10 0 12 #ffc7c6 #000000 #000000 0 1;
#X obj 137 197 spigot;
#X obj 137 225 bng 19 250 50 0 wave empty empty 0 -10 0 12 #ffc7c6 #000000 #000000;
#X obj 137 252 spigot;
#X obj 216 286 tgl 19 0 empty empty empty 0 -10 0 12 #ffc7c6 #000000 #000000 0 1;
#X obj 137 311 bng 19 250 50 0 wave2 empty empty 0 -10 0 12 #ffc7c6 #000000 #000000;
#X obj 137 339 spigot;
#X obj 137 396 bng 19 250 50 0 wave3 empty empty 0 -10 0 12 #ffc7c6 #000000 #000000;
#X obj 137 283 delay 25;
#X obj 138 367 delay 25;
#X obj 708 3 r orange;
#X obj 703 155 vline~;
#X obj 703 188 osc~;
#X obj 704 257 dac~;
#X obj 87 669 s sound;
#X obj 86 608 mtof;
#X msg 103 546 50, f 2;
#X obj 830 5 r sound;
#X floatatom 868 47 5 0 0 0 - - - 0;
#X obj 860 92 spigot;
#X obj 156 641 tgl 19 0 empty empty empty 0 -10 0 12 #fcfcfc #000000 #000000 0 1;
#X obj 167 671 s close;
#X obj 922 67 r close;
#X msg 998 124 0 \, \$1 400 \, 0 1200 1300;
#X floatatom 1027 49 5 0 0 0 - - - 0;
#X obj 1019 94 spigot;
#X obj 1081 69 r close;
#X msg 188 549 62, f 2;
#X msg 22 549 38, f 2;
#X msg 143 548 56, f 2;
#X msg 62 549 44, f 2;
#X obj 533 95 vline~;
#X obj 533 135 osc~;
#X obj 532 199 dac~;
#X obj 534 166 *~ 0.5;
#X msg 534 68 2000 \, 0 100 100;
#X obj 339 93 vline~;
#X obj 339 133 osc~;
#X obj 338 197 dac~;
#X msg 426 57 0;
#X obj 340 164 *~ 0.2;
#X msg 281 58 0 \, 2000 1000;
#X obj 536 9 r yellow;
#X obj 343 26 r green;
#X obj 427 26 r orange;
#X obj 534 39 delay 1400;
#X msg 702 125 0 \, \$1 300 \, 0 1800 800;
#X obj 1183 173 vline~;
#X obj 1184 209 osc~;
#X obj 1185 271 dac~;
#X msg 1182 140 0 \, \$1 400 \, 0 1200 1300;
#X floatatom 1211 65 5 0 0 0 - - - 0;
#X obj 1203 110 spigot;
#X obj 1265 85 r close;
#X obj 1173 20 r wave2;
#X obj 1354 172 vline~;
#X obj 1355 208 osc~;
#X obj 1356 270 dac~;
#X msg 1353 139 0 \, \$1 400 \, 0 1200 1300;
#X floatatom 1382 64 5 0 0 0 - - - 0;
#X obj 1374 109 spigot;
#X obj 1436 84 r close;
#X obj 1344 19 r wave2;
#X obj 66 463 + 1;
#X obj 31 462 f;
#X obj 109 463 % 5;
#X obj 56 503 select 0 1 2 3;
#X obj 39 429 r start;
#X obj 188 593 r start;
#X obj 18 256 spigot;
#X obj 48 226 tgl 19 0 empty empty empty 0 -10 0 12 #ffe3c6 #000000 #000000 0 1;
#X obj 19 283 bng 19 250 50 0 drum empty empty 0 -10 0 12 #ffe3c6 #000000 #000000;
#X obj 421 690 dac~;
#X obj 492 536 soundfiler;
#X obj 482 557 array define kickarray;
#X obj 322 656 tabplay~ kickarray;
#X obj 324 634 bng 15 250 50 0 empty empty empty 17 7 0 10 #fcfcfc #000000 #000000;
#X msg 500 508 read -resize kick.wav kickarray;
#X obj 494 466 loadbang;
#X obj 492 576 array define beeparray;
#X msg 484 485 read -resize beep.wav beeparray;
#X obj 449 654 tabplay~ beeparray;
#X obj 445 631 bng 15 250 50 0 empty empty empty 17 7 0 10 #fcfcfc #000000 #000000;
#X obj 303 470 tgl 15 0 empty empty empty 17 7 0 10 #fcfcfc #000000 #000000 0 1;
#X obj 310 541 f;
#X obj 342 542 + 1;
#X floatatom 341 567 5 0 0 0 - - - 0;
#X obj 385 631 bng 15 250 50 0 empty empty empty 17 7 0 10 #fcfcfc #000000 #000000;
#X obj 311 562 % 4;
#X obj 354 596 select 0 1 2;
#X obj 300 438 r drum;
#X obj 704 219 *~ 0.7;
#X obj 306 504 metro 650;
#X connect 0 0 1 0;
#X connect 2 0 19 0;
#X connect 3 0 5 0;
#X connect 4 0 5 1;
#X connect 5 0 6 0;
#X connect 7 0 9 0;
#X connect 8 0 9 1;
#X connect 9 0 10 0;
#X connect 11 0 12 0;
#X connect 12 0 14 0;
#X connect 12 0 14 1;
#X connect 13 0 45 0;
#X connect 15 0 17 0;
#X connect 16 0 17 1;
#X connect 17 0 18 0;
#X connect 18 0 90 0;
#X connect 19 0 15 0;
#X connect 19 1 3 0;
#X connect 19 2 20 0;
#X connect 19 3 7 0;
#X connect 20 0 22 0;
#X connect 21 0 22 1;
#X connect 22 0 23 0;
#X connect 23 0 24 0;
#X connect 24 0 29 0;
#X connect 25 0 24 1;
#X connect 25 0 27 1;
#X connect 26 0 27 0;
#X connect 27 0 30 0;
#X connect 29 0 26 0;
#X connect 30 0 28 0;
#X connect 31 0 39 0;
#X connect 32 0 33 0;
#X connect 33 0 112 0;
#X connect 36 0 35 0;
#X connect 36 0 41 0;
#X connect 37 0 36 0;
#X connect 38 0 45 0;
#X connect 38 0 39 0;
#X connect 38 0 72 0;
#X connect 38 0 80 0;
#X connect 39 0 40 0;
#X connect 40 0 67 0;
#X connect 41 0 42 0;
#X connect 43 0 40 1;
#X connect 44 0 11 0;
#X connect 45 0 46 0;
#X connect 46 0 44 0;
#X connect 47 0 46 1;
#X connect 48 0 36 0;
#X connect 49 0 36 0;
#X connect 50 0 36 0;
#X connect 51 0 36 0;
#X connect 52 0 53 0;
#X connect 53 0 55 0;
#X connect 55 0 54 0;
#X connect 55 0 54 1;
#X connect 56 0 52 0;
#X connect 57 0 58 0;
#X connect 58 0 61 0;
#X connect 60 0 57 0;
#X connect 61 0 59 0;
#X connect 61 0 59 1;
#X connect 62 0 57 0;
#X connect 63 0 66 0;
#X connect 64 0 62 0;
#X connect 65 0 60 0;
#X connect 66 0 56 0;
#X connect 67 0 32 0;
#X connect 68 0 69 0;
#X connect 69 0 70 0;
#X connect 69 0 70 1;
#X connect 71 0 68 0;
#X connect 72 0 73 0;
#X connect 73 0 71 0;
#X connect 74 0 73 1;
#X connect 75 0 72 0;
#X connect 76 0 77 0;
#X connect 77 0 78 0;
#X connect 77 0 78 1;
#X connect 79 0 76 0;
#X connect 80 0 81 0;
#X connect 81 0 79 0;
#X connect 82 0 81 1;
#X connect 83 0 80 0;
#X connect 84 0 85 1;
#X connect 85 0 84 0;
#X connect 85 0 86 0;
#X connect 86 0 87 0;
#X connect 87 0 49 0;
#X connect 87 1 51 0;
#X connect 87 2 37 0;
#X connect 87 3 50 0;
#X connect 87 4 48 0;
#X connect 88 0 85 0;
#X connect 89 0 41 0;
#X connect 90 0 92 0;
#X connect 91 0 90 1;
#X connect 96 0 93 0;
#X connect 96 0 93 1;
#X connect 97 0 96 0;
#X connect 98 0 94 0;
#X connect 99 0 98 0;
#X connect 99 0 101 0;
#X connect 101 0 94 0;
#X connect 102 0 93 0;
#X connect 102 0 93 1;
#X connect 103 0 102 0;
#X connect 104 0 113 0;
#X connect 105 0 106 0;
#X connect 105 0 109 0;
#X connect 106 0 105 1;
#X connect 107 0 110 0;
#X connect 108 0 96 0;
#X connect 109 0 107 0;
#X connect 110 0 97 0;
#X connect 110 1 108 0;
#X connect 110 2 103 0;
#X connect 111 0 104 0;
#X connect 112 0 34 0;
#X connect 112 0 34 1;
#X connect 113 0 105 0;
