#N canvas 0 66 1512 945 12;
#X obj 8 566 dac~;
#X obj 8 452 *~;
#X obj 53 507 *~ 1;
#X obj 8 476 *~ 1;
#N canvas 373 136 1232 557 env 0;
#X obj 87 171 f;
#X obj 133 171 f;
#X obj 180 171 f;
#X obj 226 171 f;
#X obj 87 290 vline~;
#X msg 87 266 \$1 \$2 \, \$3 \$4 \$5 \, 0 \$6 \$7;
#X obj 87 242 pack 0 0 0 0 0 0 0, f 23;
#X obj 132 197 + 10;
#X obj 87 123 t b b b b b, f 27;
#X obj 273 171 f;
#X obj 245 218 +;
#X obj 139 219 *;
#X obj 87 95 bng 19 250 50 0 empty note empty 0 -10 0 12 #fcfcfc #000000 #000000;
#X obj 87 316 outlet~;
#X obj 105 146 r Vo;
#X obj 151 146 r At;
#X obj 198 146 r De;
#X obj 244 146 r Su;
#X obj 291 146 r Re;
#X connect 0 0 6 0;
#X connect 0 0 11 0;
#X connect 1 0 6 1;
#X connect 1 0 7 0;
#X connect 2 0 11 1;
#X connect 3 0 6 3;
#X connect 3 0 10 1;
#X connect 4 0 13 0;
#X connect 5 0 4 0;
#X connect 6 0 5 0;
#X connect 7 0 6 4;
#X connect 7 0 10 0;
#X connect 8 0 0 0;
#X connect 8 1 1 0;
#X connect 8 2 2 0;
#X connect 8 3 3 0;
#X connect 8 4 9 0;
#X connect 9 0 6 5;
#X connect 10 0 6 6;
#X connect 11 0 6 2;
#X connect 12 0 8 0;
#X connect 14 0 0 1;
#X connect 15 0 1 1;
#X connect 16 0 2 1;
#X connect 17 0 3 1;
#X connect 18 0 9 1;
#X restore 42 428 pd env;
#N canvas 276 192 1050 436 fm 0;
#X obj 41 189 osc~;
#X obj 41 166 +~;
#X obj 59 143 *~;
#X obj 59 119 osc~;
#X obj 95 119 *~;
#X obj 59 94 *~;
#X obj 41 49 mtof;
#X floatatom 41 74 5 0 0 0 - - - 0;
#X floatatom 77 50 5 0 0 0 - - - 0;
#X floatatom 113 70 5 0 0 0 - - - 0;
#X obj 41 221 outlet~;
#X obj 77 23 r Ha;
#X obj 113 23 r In;
#X obj 41 23 r Ca;
#X connect 0 0 10 0;
#X connect 1 0 0 0;
#X connect 2 0 1 1;
#X connect 3 0 2 0;
#X connect 4 0 2 1;
#X connect 5 0 3 0;
#X connect 5 0 4 0;
#X connect 6 0 7 0;
#X connect 7 0 1 0;
#X connect 7 0 5 0;
#X connect 8 0 5 1;
#X connect 9 0 4 1;
#X connect 11 0 8 0;
#X connect 12 0 9 0;
#X connect 13 0 6 0;
#X restore 8 360 pd fm;
#N canvas 266 291 1174 492 rev 0;
#X obj 215 413 delwrite~ A 1000;
#X obj 350 413 delwrite~ B 1000;
#X obj 577 412 delwrite~ D 1000;
#X obj 464 413 delwrite~ C 1000;
#X obj 204 81 delread~ A 101;
#X obj 338 81 delread~ B 143;
#X obj 458 81 delread~ C 165;
#X obj 598 80 delread~ D 177;
#X obj 207 138 +~;
#X obj 337 140 +~;
#X obj 457 236 +~;
#X obj 601 230 -~;
#X obj 206 243 +~;
#X obj 333 241 -~;
#X obj 338 338 +~;
#X obj 610 337 -~;
#X obj 215 341 +~;
#X obj 459 337 -~;
#X obj 213 380 *~ 0.4;
#X obj 353 381 *~ 0.37;
#X obj 462 380 *~ 0.333;
#X obj 578 382 *~ 0.3;
#X obj 92 69 inlet~;
#X obj 44 214 outlet~;
#X obj 122 218 outlet~;
#X connect 4 0 8 1;
#X connect 5 0 9 1;
#X connect 6 0 10 0;
#X connect 6 0 11 0;
#X connect 7 0 11 1;
#X connect 7 0 10 1;
#X connect 8 0 12 1;
#X connect 8 0 13 0;
#X connect 8 0 23 0;
#X connect 9 0 13 1;
#X connect 9 0 12 0;
#X connect 9 0 24 0;
#X connect 10 0 17 1;
#X connect 10 0 16 1;
#X connect 11 0 15 1;
#X connect 11 0 14 1;
#X connect 12 0 16 0;
#X connect 12 0 17 0;
#X connect 13 0 14 0;
#X connect 13 0 15 0;
#X connect 14 0 19 0;
#X connect 15 0 21 0;
#X connect 16 0 18 0;
#X connect 17 0 20 0;
#X connect 18 0 0 0;
#X connect 19 0 1 0;
#X connect 20 0 3 0;
#X connect 21 0 2 0;
#X connect 22 0 8 0;
#X connect 22 0 9 0;
#X restore 53 530 pd rev;
#X obj 8 404 hip~;
#X obj 8 428 lop~;
#X floatatom 127 594 5 0 0 0 - - Ca 0;
#X floatatom 226 502 5 0 0 0 - - De 0;
#X floatatom 146 576 5 0 0 0 - - Ha 0;
#X floatatom 166 558 5 0 0 0 - - In 0;
#X floatatom 186 539 5 0 0 0 - - Vo 0;
#X floatatom 206 520 5 0 0 0 - - At 0;
#X floatatom 246 483 5 0 0 0 - - Su 0;
#X floatatom 266 464 5 0 0 0 - - Re 0;
#X floatatom 286 445 5 0 0 0 - - Lop 0;
#X floatatom 306 427 5 0 0 0 - - Hip 0;
#X obj 36 381 r Hip;
#X obj 42 404 r Lop;
#X obj 126 574 cnv 19 19 19 empty empty empty 20 12 0 12 #ffc7c6 #404040 0;
#X obj 146 556 cnv 19 19 19 empty empty empty 20 12 0 12 #ffe3c6 #404040 0;
#X obj 166 538 cnv 19 19 19 empty empty empty 20 12 0 12 #feffc6 #404040 0;
#X obj 186 519 cnv 19 19 19 empty empty empty 20 12 0 12 #c6ffc7 #404040 0;
#X obj 206 500 cnv 19 19 19 empty empty empty 20 12 0 12 #c6feff #404040 0;
#X obj 226 482 cnv 19 19 19 empty empty empty 20 12 0 12 #c7c6ff #404040 0;
#X obj 246 463 cnv 19 19 19 empty empty empty 20 12 0 12 #e3c6ff #404040 0;
#X obj 266 444 cnv 19 19 19 empty empty empty 20 12 0 12 #f9dbea #404040 0;
#X obj 286 425 cnv 19 19 19 empty empty empty 20 12 0 12 #8abcfd #404040 0;
#X obj 306 407 cnv 19 19 19 empty empty empty 20 12 0 12 #fe8cfe #404040 0;
#X obj 1180 586 bng 50 250 50 0 kick empty Kick 12 65 0 12 #c6feff #0e4345 #00faff;
#X obj 1600 241 line~;
#X obj 1600 265 sqrt~;
#X obj 1600 289 *~ 20;
#X obj 1600 313 -~ 0.25;
#X obj 1600 361 lop~ 1000;
#X obj 1305 585 bng 50 250 50 0 snare empty Snare 8 65 0 12 #c7c6ff #131255 #0400ff;
#X obj 1605 521 t b b;
#X obj 1604 573 line~;
#X obj 1604 597 pow~ 4;
#X obj 1604 621 *~;
#X obj 1604 645 +~;
#X obj 1604 669 lop~ 4000;
#X obj 1600 337 cos~;
#X msg 1718 543 1 \, 0 200;
#X obj 1719 572 line~;
#X obj 1719 596 pow~ 4;
#X obj 1719 620 *~;
#X obj 1792 553 noise~;
#X obj 1792 577 hip~ 3000;
#X obj 1785 592 bp~ 5000 2;
#X obj 1441 584 bng 50 250 50 0 symbal empty Symbal 6 65 0 12 #e3c6ff #2f004d #9c00ff;
#X obj 1611 989 line~;
#X obj 1611 1013 pow~ 4;
#X obj 1611 1037 *~;
#X obj 1606 805 phasor~ 350;
#X obj 1606 829 *~ 2;
#X obj 1606 853 -~ 1;
#X obj 1606 877 +~;
#X obj 1693 805 phasor~ 800;
#X obj 1693 831 *~ 2;
#X obj 1693 858 -~ 1;
#X obj 1645 893 noise~;
#X obj 1606 926 hip~ 8000;
#X obj 1679 994 hip~ 8000;
#X obj 1679 1018 hip~ 8000;
#X msg 1608 963 1 \, 0 200;
#X obj 1259 489 select 0 1 2 3 4 5 6;
#X obj 1978 488 bng 19 250 50 0 second empty Second\ pattern 30 10 0 12 #fcfcfc #000000 #000000;
#X obj 1976 338 bng 19 250 50 0 empty empty First\ pattern 30 10 0 12 #fcfcfc #000000 #000000;
#X obj 1972 644 bng 19 250 50 0 third empty Third\ pattern 30 10 0 12 #ffffff #000000 #000000;
#X obj 1878 337 unpack s f;
#X symbolatom 1878 369 21 0 0 0 - - - 0;
#X obj 1597 117 bng 19 250 50 0 empty empty empty 0 -10 0 12 #fcfcfc #000000 #000000;
#X obj 1879 489 unpack s f;
#X symbolatom 1879 521 21 0 0 0 - - - 0;
#X obj 1879 644 unpack s f;
#X symbolatom 1879 676 21 0 0 0 - - - 0;
#X obj 1600 434 dac~;
#X floatatom 1878 842 5 0 1 0 - - - 0;
#X obj 1604 745 dac~;
#X floatatom 1926 841 5 0 1 0 - - - 0;
#X obj 1611 1110 dac~;
#X floatatom 1976 840 5 0 1 0 - - - 0;
#X obj 1878 803 route V1 V2 V3;
#X msg 1599 215 0 \, 1 300;
#X msg 1604 549 1 \, 0 100;
#X obj 1654 602 osc~ 300;
#X obj 1611 1061 *~ 2;
#X obj 1604 696 *~ 0.8;
#X obj 1600 385 *~ 0.8;
#X msg 1879 279 listen 10002;
#X obj 1879 308 netreceive 10002;
#X obj 1879 460 netreceive 10003;
#X msg 1879 431 listen 10003;
#X msg 1879 586 listen 10004;
#X obj 1880 615 netreceive 10004;
#X msg 1878 745 listen 10005;
#X msg 127 337 listen 11001;
#X obj 1878 774 netreceive 10005;
#X msg 1161 394 listen 10001;
#X obj 1161 419 netreceive 10001;
#N canvas 167 412 491 432 portal 0;
#X obj 44 99 t f b;
#X obj 43 208 f;
#X obj 102 117 hradio 19 1 0 16 empty empty empty 0 -10 0 12 #ffc7c6 #c6ffc7 #00ff04 0;
#X obj 78 208 + 1;
#X msg 61 178 0;
#X obj 44 69 tgl 19 0 empty empty empty 0 -10 0 12 #fcfcfc #000000 #000000 0 1;
#X obj 43 232 % 16;
#X floatatom 43 321 5 0 0 0 - - - 0;
#X obj 21 150 metro 200;
#X obj 44 38 unpack s f;
#X symbolatom 79 70 21 0 0 0 - - - 0;
#X obj 43 290 array get DrumPattern;
#X obj 44 5 inlet;
#X obj 44 350 outlet;
#X connect 0 0 8 0;
#X connect 0 1 4 0;
#X connect 1 0 3 0;
#X connect 1 0 6 0;
#X connect 2 0 11 0;
#X connect 3 0 1 1;
#X connect 4 0 1 1;
#X connect 5 0 0 0;
#X connect 6 0 2 0;
#X connect 7 0 13 0;
#X connect 8 0 1 0;
#X connect 9 0 10 0;
#X connect 9 1 5 0;
#X connect 11 0 7 0;
#X connect 12 0 9 0;
#X coords 0 -1 1 1 310 40 1 100 100;
#X restore 1180 444 pd portal 10001;
#X obj 1541 914 r symbal;
#X obj 2017 885 s setV3;
#X obj 1949 886 s setV2;
#X obj 1877 885 s setV1;
#X obj 1548 1031 r setV3;
#X obj 1547 690 r setV2;
#X obj 1537 384 r setV1;
#X obj 1598 171 r kick;
#X obj 1604 496 r snare;
#X obj 1161 369 r port10001;
#X obj 1596 87 loadbang;
#X obj 1878 241 r port10002;
#X obj 1877 402 r port10003;
#X obj 1878 561 r port10004;
#X obj 1877 716 r port10005;
#X obj 1541 143 s port10001;
#X obj 1630 142 s port10002;
#X obj 1721 142 s port10003;
#X obj 1814 142 s port10004;
#X obj 1905 142 s port10005;
#N canvas 234 261 843 572 patterns 0;
#X msg 381 110 4 0 2 10 5 10 2 0 2 10 4 0 5 10 6 10;
#X msg 380 181 4 2 4 2 5 2 4 5 2 5 4 5 5 4 2 5;
#X msg 331 53 4 10 4 10 5 10 2 1 2 1 4 0 5 10 2 1;
#X obj 331 257 array set DrumPattern;
#X obj 382 143 r third;
#X obj 379 82 r second;
#X obj 329 13 r first;
#N canvas 0 22 450 278 (subpatch) 0;
#X array DrumPattern 16 float 5;
#A 0 4 2 4 2 5 2 4 5 2 5 4 5 5 4 2 5;
#X coords 0 0 15 10 200 140 1 0 0;
#X restore 105 117 graph;
#X connect 0 0 3 0;
#X connect 1 0 3 0;
#X connect 2 0 3 0;
#X connect 4 0 1 0;
#X connect 5 0 0 0;
#X connect 6 0 2 0;
#X coords 0 -1 1 1 210 160 2 100 100;
#X restore 1280 281 pd patterns;
#X obj 752 317 dac~;
#X obj 752 268 *~;
#X obj 722 75 unpack f f;
#X obj 545 267 osc~;
#X msg 722 28 listen 12001;
#X obj 1996 142 s port11001;
#X obj 127 311 r port11001;
#X obj 722 5 r port12001;
#X obj 2085 142 s port12001;
#X obj 722 51 netreceive -u 12001;
#X obj 127 362 netreceive 11001;
#N canvas 0 464 519 386 notes 0;
#X obj 38 342 bng 19 250 50 0 note58 empty empty 0 -10 0 12 #fcfcfc #000000 #000000;
#X obj 83 342 bng 19 250 50 0 note60 empty empty 0 -10 0 12 #fcfcfc #000000 #000000;
#X obj 129 342 bng 19 250 50 0 note62 empty empty 0 -10 0 12 #fcfcfc #000000 #000000;
#X obj 167 342 bng 19 250 50 0 note63 empty empty 0 -10 0 12 #fcfcfc #000000 #000000;
#X obj 199 341 bng 19 250 50 0 note65 empty empty 0 -10 0 12 #fcfcfc #000000 #000000;
#X msg 38 378 58;
#X msg 83 378 60;
#X msg 129 378 62;
#X msg 167 378 63;
#X msg 199 378 65;
#X obj 94 431 mtof;
#X msg 237 377 67;
#X obj 236 344 bng 19 250 50 0 note67 empty empty 0 -10 0 12 #fcfcfc #000000 #000000;
#X floatatom 89 462 5 0 0 0 - - - 0;
#X obj 83 299 select 58 60 62 63 65 67 69 70 72;
#X obj 274 343 bng 19 250 50 0 note69 empty empty 0 -10 0 12 #fcfcfc #000000 #000000;
#X obj 307 345 bng 19 250 50 0 note70 empty empty 0 -10 0 12 #fcfcfc #000000 #000000;
#X obj 343 327 bng 19 250 50 0 note72 empty empty 0 -10 0 12 #fcfcfc #000000 #000000;
#X msg 274 379 69;
#X msg 308 379 70;
#X msg 342 362 72;
#X obj 49 271 inlet;
#X obj 90 493 outlet;
#X obj 101 102 bng 50 250 50 0 empty note58 empty 0 -10 0 12 #fcfcfc #000000 #000000;
#X obj 101 152 bng 50 250 50 0 empty empty empty 0 -10 0 12 #fcfcfc #000000 #000000;
#X obj 101 202 bng 50 250 50 0 empty empty empty 0 -10 0 12 #fcfcfc #000000 #000000;
#X obj 151 102 bng 50 250 50 0 empty note62 empty 0 -10 0 12 #fcfcfc #000000 #000000;
#X obj 151 152 bng 50 250 50 0 empty empty empty 0 -10 0 12 #fcfcfc #000000 #000000;
#X obj 151 202 bng 50 250 50 0 empty empty empty 0 -10 0 12 #fcfcfc #000000 #000000;
#X obj 201 102 bng 50 250 50 0 empty note65 empty 0 -10 0 12 #fcfcfc #000000 #000000;
#X obj 201 152 bng 50 250 50 0 empty empty empty 0 -10 0 12 #fcfcfc #000000 #000000;
#X obj 201 202 bng 50 250 50 0 empty empty empty 0 -10 0 12 #fcfcfc #000000 #000000;
#X obj 251 102 bng 50 250 50 0 empty note69 empty 0 -10 0 12 #fcfcfc #000000 #000000;
#X obj 251 152 bng 50 250 50 0 empty empty empty 0 -10 0 12 #fcfcfc #000000 #000000;
#X obj 251 202 bng 50 250 50 0 empty empty empty 0 -10 0 12 #fcfcfc #000000 #000000;
#X obj 301 102 bng 50 250 50 0 empty note72 empty 0 -10 0 12 #fcfcfc #000000 #000000;
#X obj 301 152 bng 50 250 50 0 empty empty empty 0 -10 0 12 #fcfcfc #000000 #000000;
#X obj 301 202 bng 50 250 50 0 empty empty empty 0 -10 0 12 #fcfcfc #000000 #000000;
#X obj 136 103 bng 30 250 50 0 empty note60 empty 0 -10 0 12 #000000 #ffffff #ffffff;
#X obj 136 163 bng 30 250 50 0 empty empty empty 0 -10 0 12 #000000 #ffffff #ffffff;
#X obj 136 134 bng 30 250 50 0 empty empty empty 0 -10 0 12 #000000 #ffffff #ffffff;
#X obj 187 103 bng 30 250 50 0 empty note63 empty 0 -10 0 12 #000000 #ffffff #ffffff;
#X obj 187 163 bng 30 250 50 0 empty empty empty 0 -10 0 12 #000000 #ffffff #ffffff;
#X obj 187 134 bng 30 250 50 0 empty empty empty 0 -10 0 12 #000000 #ffffff #ffffff;
#X obj 236 103 bng 30 250 50 0 empty note67 empty 0 -10 0 12 #000000 #ffffff #ffffff;
#X obj 236 163 bng 30 250 50 0 empty empty empty 0 -10 0 12 #000000 #ffffff #ffffff;
#X obj 236 134 bng 30 250 50 0 empty empty empty 0 -10 0 12 #000000 #ffffff #ffffff;
#X obj 286 103 bng 30 250 50 0 empty note70 empty 0 -10 0 12 #000000 #ffffff #ffffff;
#X obj 286 163 bng 30 250 50 0 empty empty empty 0 -10 0 12 #000000 #ffffff #ffffff;
#X obj 286 134 bng 30 250 50 0 empty empty empty 0 -10 0 12 #000000 #ffffff #ffffff;
#X connect 0 0 5 0;
#X connect 1 0 6 0;
#X connect 2 0 7 0;
#X connect 3 0 8 0;
#X connect 4 0 9 0;
#X connect 5 0 10 0;
#X connect 6 0 10 0;
#X connect 7 0 10 0;
#X connect 8 0 10 0;
#X connect 9 0 10 0;
#X connect 10 0 13 0;
#X connect 11 0 10 0;
#X connect 12 0 11 0;
#X connect 13 0 22 0;
#X connect 14 0 0 0;
#X connect 14 1 1 0;
#X connect 14 2 2 0;
#X connect 14 3 3 0;
#X connect 14 4 4 0;
#X connect 14 5 12 0;
#X connect 14 6 15 0;
#X connect 14 7 16 0;
#X connect 14 8 17 0;
#X connect 15 0 18 0;
#X connect 16 0 19 0;
#X connect 17 0 20 0;
#X connect 18 0 10 0;
#X connect 19 0 10 0;
#X connect 20 0 10 0;
#X connect 21 0 14 0;
#X connect 23 0 24 0;
#X connect 24 0 25 0;
#X connect 26 0 27 0;
#X connect 27 0 28 0;
#X connect 29 0 30 0;
#X connect 30 0 31 0;
#X connect 32 0 33 0;
#X connect 33 0 34 0;
#X connect 35 0 36 0;
#X connect 36 0 37 0;
#X connect 38 0 40 0;
#X connect 40 0 39 0;
#X connect 41 0 43 0;
#X connect 43 0 42 0;
#X connect 44 0 46 0;
#X connect 46 0 45 0;
#X connect 47 0 49 0;
#X connect 49 0 48 0;
#X coords 0 -1 1 1 252 153 2 100 100;
#X restore 540 103 pd notes;
#N canvas 1048 359 450 300 envelope 0;
#X obj 257 178 bng 19 250 50 0 envelope1 empty empty 0 -10 0 12 #fcfcfc #000000 #000000;
#X obj 299 179 bng 19 250 50 0 empty empty empty 0 -10 0 12 #fcfcfc #000000 #000000;
#X obj 338 179 bng 19 250 50 0 empty empty empty 0 -10 0 12 #fcfcfc #000000 #000000;
#X obj 258 125 select 0.25 0.5 1;
#X msg 412 215 1 0 \, 0 50 430;
#X msg 299 215 1 0 \, 0 50 190;
#X msg 194 216 1 0 \, 0 50 70;
#X obj 258 67 inlet;
#X obj 194 252 outlet;
#X obj 301 250 outlet;
#X obj 415 251 outlet;
#X obj 101 103 vsl 19 153 0 1 0 0 empty empty empty 0 -9 0 12 #551312 #feffc6 #c6ffc7 0 1;
#X obj 121 103 vsl 19 153 0 1 0 0 empty envelope1 empty 0 -9 0 12 #553512 #c6ffc7 #c6ffc7 0 1;
#X obj 141 103 vsl 19 153 0 1 0 0 empty envelope1 empty 0 -9 0 12 #535512 #c6feff #c6ffc7 0 1;
#X msg 205 161 1;
#X msg 202 126 0;
#X msg 201 72 1;
#X msg 201 36 0;
#X msg 123 29 1;
#X msg 71 29 0;
#X connect 0 0 6 0;
#X connect 0 0 14 0;
#X connect 0 0 15 0;
#X connect 1 0 5 0;
#X connect 1 0 16 0;
#X connect 1 0 17 0;
#X connect 2 0 4 0;
#X connect 2 0 18 0;
#X connect 2 0 19 0;
#X connect 3 0 0 0;
#X connect 3 1 1 0;
#X connect 3 2 2 0;
#X connect 4 0 10 0;
#X connect 5 0 9 0;
#X connect 6 0 8 0;
#X connect 7 0 3 0;
#X connect 14 0 11 0;
#X connect 15 0 12 0;
#X connect 15 0 13 0;
#X connect 16 0 12 0;
#X connect 17 0 13 0;
#X connect 17 0 11 0;
#X connect 18 0 13 0;
#X connect 19 0 12 0;
#X connect 19 0 11 0;
#X coords 0 -1 1 1 60 160 2 100 100;
#X restore 873 99 pd envelope;
#X obj 884 265 vline~;
#X obj 347 426 hsl 162 19 0 127 0 0 empty Hip empty -2 -10 0 12 #fe8bfe #000000 #000000 0 1;
#X obj 325 445 hsl 162 19 0 127 0 0 empty Lop empty -2 -10 0 12 #8abcfc #000000 #000000 0 1;
#X obj 307 464 hsl 162 19 0 127 0 0 empty Re empty -2 -10 0 12 #f8dae9 #000000 #000000 0 1;
#X obj 286 483 hsl 162 19 0 127 0 0 empty Su empty -2 -10 0 12 #e2c5ff #000000 #000000 0 1;
#X obj 267 501 hsl 162 19 0 127 0 0 empty De empty -2 -10 0 12 #c7c5ff #000000 #000000 0 1;
#X obj 247 520 hsl 162 19 0 127 0 0 empty At empty -2 -10 0 12 #c6feff #000000 #000000 0 1;
#X obj 227 539 hsl 162 19 0 127 0 0 empty Vo empty -2 -10 0 12 #c6ffc7 #000000 #000000 0 1;
#X obj 207 557 hsl 162 19 0 127 0 0 empty In empty -2 -10 0 12 #feffc6 #000000 #000000 0 1;
#X obj 187 576 hsl 162 19 0 127 0 0 empty Ha empty -2 -10 0 12 #ffe3c6 #000000 #000000 0 1;
#X obj 168 594 hsl 162 19 0 127 0 0 empty Ca empty -2 -10 0 12 #ffc7c6 #000000 #000000 0 1;
#X obj 877 425 vu 19 200 empty empty -1 -10 0 12 #c6ffc7 #ffffff 1 0;
#X obj 877 340 vu 19 80 empty empty -1 -10 0 12 #c6ffc7 #ffffff 1 0;
#X obj 899 340 vu 19 120 empty empty -1 -10 0 12 #c6ffc7 #ffffff 1 0;
#X obj 899 505 vu 19 120 empty empty -1 -10 0 12 #c6ffc7 #ffffff 1 0;
#X obj 921 545 vu 19 80 empty empty -1 -10 0 12 #c6ffc7 #ffffff 1 0;
#X obj 921 340 vu 19 200 empty empty -1 -10 0 12 #c6ffc7 #ffffff 1 0;
#X obj 608 890 dac~;
#X obj 616 826 *~;
#X obj 512 791 +~;
#X obj 558 809 -~ 1;
#X msg 529 709 0;
#X msg 592 710 0.5;
#X obj 617 853 *~ 0.5;
#X obj 732 654 bng 50 250 50 0 empty empty empty 0 -10 0 12 #feffc6 #c6feff #000000;
#X obj 927 754 oscparse;
#X floatatom 827 879 5 0 0 0 - - - 0;
#X obj 896 793 route charlesbox;
#X obj 867 830 route synth;
#X obj 923 773 list trim;
#X obj 460 749 phasor~ \$2;
#X obj 555 749 phasor~ \$2;
#X obj 855 854 unpack f f;
#X floatatom 919 882 5 0 0 0 - - - 0;
#X obj 679 754 vline~, f 7;
#X obj 927 686 r port13001;
#X obj 2172 142 s port13001;
#X msg 927 710 listen 13001;
#X obj 927 732 netreceive -u -b 13001;
#X obj 827 904 s phasor1;
#X obj 456 709 r phasor1;
#X obj 1878 929 r go;
#X obj 1879 968 f;
#X obj 1930 929 r start;
#X obj 1936 967 expr abs($f2 - $f1) / 44.1;
#X obj 2094 929 r end;
#X floatatom 1938 995 5 0 0 0 - - - 0;
#X obj 1938 1022 / 1;
#X obj 1890 994 r end;
#X obj 1855 1022 pack f f f;
#X obj 1854 1077 vline~;
#X msg 1854 1049 \$1 \, \$2 \$3;
#X obj 1850 1167 dac~;
#X msg 1994 1056 \$1 100;
#X obj 2053 1036 r start;
#X obj 2124 1039 r end;
#X obj 409 337 soundfiler;
#X msg 407 307 read -resize ./electrophonic.wav electroPhonic;
#X floatatom 465 363 5 0 0 0 - - - 0;
#X obj 593 423 vu 19 200 empty empty -1 -10 0 12 #c6ffc7 #ffffff 1 0;
#X obj 593 338 vu 19 80 empty empty -1 -10 0 12 #c6ffc7 #ffffff 1 0;
#X obj 615 338 vu 19 120 empty empty -1 -10 0 12 #c6ffc7 #ffffff 1 0;
#X obj 615 503 vu 19 120 empty empty -1 -10 0 12 #c6ffc7 #ffffff 1 0;
#X obj 637 543 vu 19 80 empty empty -1 -10 0 12 #c6ffc7 #ffffff 1 0;
#X obj 637 338 vu 19 200 empty empty -1 -10 0 12 #c6ffc7 #ffffff 1 0;
#X text 679 343 GROUP 6 - Electro Phonic, f 119;
#N canvas 0 22 450 278 (subpatch) 0;
#X array electroPhonic 347904 float 2;
#X coords 0 1 347904 -1 200 140 1 0 0;
#X restore 667 380 graph;
#X obj 672 550 hsl 180 19 0 347904 0 0 start empty empty -2 -10 0 12 #c6feff #000000 #000000 0 1;
#X obj 673 577 hsl 180 19 0 347904 0 0 empty empty empty -2 -10 0 12 #ffc7c6 #000000 #000000 0 1;
#X obj 819 524 bng 19 250 50 0 go empty empty 0 -10 0 12 #e3c6ff #000000 #000000;
#X msg 668 526 range 0 \$1;
#X obj 467 389 s end;
#X obj 1853 1103 tabread4~ electroPhonic;
#X obj 815 599 s end;
#X obj 669 599 s start;
#X floatatom 1984 1019 5 0.1 2 0 - - - 0;
#X obj 964 462 vsl 19 162 0.1 2 0 0 empty empty empty 0 -9 0 12 #9f9f9f #000000 #000000 0 1;
#X obj 1005 607 s speed;
#X obj 1985 993 r speed;
#X obj 1787 1052 print;
#X obj 1851 1139 *~ 1;
#X obj 752 291 *~ 1;
#X obj 127 387 unpack f f f f f f f f f f b;
#X obj 341 387 s note;
#X msg 680 729 1 10 \, 0 300 300;
#X obj 1611 1086 *~;
#X obj 1604 721 *~;
#X obj 1601 410 *~;
#X floatatom 1007 577 5 0 0 0 - - - 0;
#X connect 1 0 3 0;
#X connect 2 0 6 0;
#X connect 3 0 0 0;
#X connect 3 0 0 1;
#X connect 3 0 2 0;
#X connect 4 0 1 1;
#X connect 5 0 7 0;
#X connect 6 0 0 0;
#X connect 6 1 0 1;
#X connect 7 0 8 0;
#X connect 8 0 1 0;
#X connect 19 0 7 1;
#X connect 20 0 8 1;
#X connect 32 0 33 0;
#X connect 33 0 34 0;
#X connect 34 0 35 0;
#X connect 35 0 44 0;
#X connect 36 0 91 0;
#X connect 38 0 87 0;
#X connect 38 1 45 0;
#X connect 39 0 40 0;
#X connect 40 0 41 0;
#X connect 41 0 42 0;
#X connect 42 0 43 0;
#X connect 43 0 90 0;
#X connect 44 0 36 0;
#X connect 45 0 46 0;
#X connect 46 0 47 0;
#X connect 47 0 48 0;
#X connect 48 0 42 1;
#X connect 49 0 50 0;
#X connect 50 0 51 0;
#X connect 51 0 48 1;
#X connect 53 0 54 0;
#X connect 54 0 55 0;
#X connect 55 0 89 0;
#X connect 56 0 57 0;
#X connect 57 0 58 0;
#X connect 58 0 59 0;
#X connect 59 0 64 0;
#X connect 60 0 61 0;
#X connect 61 0 62 0;
#X connect 62 0 59 1;
#X connect 63 0 64 0;
#X connect 64 0 65 0;
#X connect 65 0 66 0;
#X connect 66 0 55 1;
#X connect 67 0 53 0;
#X connect 68 0 31 0;
#X connect 68 1 37 0;
#X connect 68 2 52 0;
#X connect 68 3 31 0;
#X connect 68 3 37 0;
#X connect 68 4 31 0;
#X connect 68 4 52 0;
#X connect 68 5 37 0;
#X connect 68 5 52 0;
#X connect 68 6 31 0;
#X connect 68 6 37 0;
#X connect 68 6 52 0;
#X connect 72 0 73 0;
#X connect 72 1 70 0;
#X connect 74 0 119 0;
#X connect 74 0 120 0;
#X connect 74 0 121 0;
#X connect 74 0 122 0;
#X connect 74 0 123 0;
#X connect 74 0 130 0;
#X connect 74 0 133 0;
#X connect 74 0 174 0;
#X connect 75 0 76 0;
#X connect 75 1 69 0;
#X connect 77 0 78 0;
#X connect 77 1 71 0;
#X connect 80 0 107 0;
#X connect 82 0 106 0;
#X connect 84 0 105 0;
#X connect 85 0 80 0;
#X connect 85 1 82 0;
#X connect 85 2 84 0;
#X connect 86 0 32 0;
#X connect 87 0 39 0;
#X connect 88 0 41 1;
#X connect 89 0 223 0;
#X connect 90 0 224 0;
#X connect 91 0 225 0;
#X connect 92 0 93 0;
#X connect 93 0 72 0;
#X connect 94 0 75 0;
#X connect 95 0 94 0;
#X connect 96 0 97 0;
#X connect 97 0 77 0;
#X connect 98 0 100 0;
#X connect 99 0 135 0;
#X connect 100 0 85 0;
#X connect 101 0 102 0;
#X connect 102 0 103 0;
#X connect 103 0 68 0;
#X connect 104 0 67 0;
#X connect 108 0 223 1;
#X connect 109 0 224 1;
#X connect 110 0 225 1;
#X connect 111 0 86 0;
#X connect 112 0 38 0;
#X connect 113 0 101 0;
#X connect 114 0 74 0;
#X connect 115 0 92 0;
#X connect 116 0 95 0;
#X connect 117 0 96 0;
#X connect 118 0 98 0;
#X connect 126 0 219 0;
#X connect 127 0 136 0;
#X connect 127 1 137 0;
#X connect 128 0 126 0;
#X connect 129 0 134 0;
#X connect 131 0 99 0;
#X connect 132 0 129 0;
#X connect 134 0 127 0;
#X connect 135 0 220 0;
#X connect 136 0 128 0;
#X connect 137 0 138 0;
#X connect 137 1 138 0;
#X connect 137 2 138 0;
#X connect 138 0 126 1;
#X connect 156 0 161 0;
#X connect 157 0 158 0;
#X connect 158 0 156 0;
#X connect 159 0 168 1;
#X connect 160 0 169 1;
#X connect 161 0 155 0;
#X connect 161 0 155 1;
#X connect 162 0 160 0;
#X connect 162 0 159 0;
#X connect 162 0 222 0;
#X connect 163 0 167 0;
#X connect 164 0 177 0;
#X connect 165 0 166 0;
#X connect 166 0 170 0;
#X connect 167 0 165 0;
#X connect 168 0 157 0;
#X connect 169 0 157 1;
#X connect 170 0 164 0;
#X connect 170 1 171 0;
#X connect 172 0 156 1;
#X connect 173 0 175 0;
#X connect 175 0 176 0;
#X connect 176 0 163 0;
#X connect 176 0 162 0;
#X connect 178 0 168 0;
#X connect 178 0 169 0;
#X connect 179 0 180 0;
#X connect 180 0 187 0;
#X connect 181 0 180 1;
#X connect 181 0 182 0;
#X connect 182 0 184 0;
#X connect 183 0 182 1;
#X connect 184 0 185 0;
#X connect 185 0 187 2;
#X connect 186 0 187 1;
#X connect 187 0 189 0;
#X connect 187 0 217 0;
#X connect 188 0 210 0;
#X connect 189 0 188 0;
#X connect 191 0 188 0;
#X connect 192 0 191 0;
#X connect 193 0 191 0;
#X connect 194 0 196 0;
#X connect 195 0 194 0;
#X connect 196 0 208 0;
#X connect 196 0 209 0;
#X connect 205 0 212 0;
#X connect 206 0 211 0;
#X connect 208 0 205 0;
#X connect 208 0 206 0;
#X connect 210 0 218 0;
#X connect 213 0 185 1;
#X connect 214 0 215 0;
#X connect 214 0 226 0;
#X connect 216 0 213 0;
#X connect 218 0 190 0;
#X connect 218 0 190 1;
#X connect 219 0 125 0;
#X connect 219 0 125 1;
#X connect 220 0 9 0;
#X connect 220 1 11 0;
#X connect 220 2 12 0;
#X connect 220 3 13 0;
#X connect 220 4 14 0;
#X connect 220 5 10 0;
#X connect 220 6 15 0;
#X connect 220 7 16 0;
#X connect 220 8 17 0;
#X connect 220 9 18 0;
#X connect 220 10 221 0;
#X connect 222 0 172 0;
#X connect 223 0 83 0;
#X connect 223 0 83 1;
#X connect 224 0 81 0;
#X connect 224 0 81 1;
#X connect 225 0 79 0;
#X connect 225 0 79 1;
#X coords 0 945 1 944 85 60 0;
