#N canvas 0 43 1710 980 12;
#X obj 1229 786 dac~;
#X obj 1244 682 *~;
#X obj 1137 595 +~;
#X obj 1138 629 -~ 1;
#X msg 1148 518 0;
#X msg 1211 519 0.5;
#X obj 1240 720 *~ 0.5;
#X obj 1273 458 bng 19 250 50 0 empty empty empty 0 -10 0 12 #fcfcfc #000000 #000000;
#X msg 597 169 connect localhost 5000;
#X obj 589 195 netsend -u -b;
#X obj 589 120 list prepend send;
#X obj 589 145 list trim;
#X obj 589 93 oscformat charlesbox synth;
#X obj 1464 641 oscparse;
#X obj 1464 619 netreceive -u -b;
#X msg 1464 596 listen 5000;
#X floatatom 1364 766 5 0 0 0 - - - 0;
#X obj 1433 680 route charlesbox;
#X obj 1404 717 route synth;
#X obj 1460 660 list trim;
#X obj 68 66 mtof;
#X msg 66 28 60;
#X msg 122 26 62;
#X msg 174 27 63;
#X msg 230 26 65;
#X msg 289 25 67;
#X msg 346 27 69;
#X msg 398 26 70;
#X msg 444 28 72;
#X obj 68 107 s freq;
#X obj 633 19 r freq;
#X obj 586 39 f;
#X obj 547 14 bng 19 250 50 0 empty empty empty 0 -10 0 12 #fcfcfc #000000 #000000;
#X obj 1091 553 phasor~ \$2;
#X obj 1191 553 phasor~ \$2;
#X obj 819 320 key;
#X floatatom 822 373 5 0 0 0 - - - 0;
#X obj 822 423 select 97 115 100 102 106 107 108 59;
#X obj 932 606 bng 19 250 50 0 empty empty empty 0 -10 0 12 #fcfcfc #000000 #000000;
#X obj 933 640 f;
#X obj 977 640 + 1;
#X msg 1021 638 0;
#X floatatom 934 678 5 0 0 0 - - - 0;
#X obj 1392 741 unpack f f;
#X floatatom 1456 774 5 0 0 0 - - - 0;
#X msg 589 69 \$1 100;
#X obj 1307 610 vline~, f 7;
#X obj 938 512 bng 19 250 50 0 empty empty empty 0 -10 0 12 #fcfcfc #000000 #000000;
#X obj 936 805 random 8;
#X msg 1032 805 seed 10;
#X obj 936 852 select 0 1 2 3 4 5 6 7;
#X msg 1306 542 1 10 \, 0 200 200;
#X obj 932 569 metro 700;
#X obj 934 713 mod 14;
#X obj 934 754 select 0 2 3 5 8 10 11;
#X connect 1 0 6 0;
#X connect 2 0 3 0;
#X connect 3 0 1 0;
#X connect 4 0 33 1;
#X connect 5 0 34 1;
#X connect 6 0 0 0;
#X connect 6 0 0 1;
#X connect 7 0 5 0;
#X connect 7 0 4 0;
#X connect 7 0 51 0;
#X connect 8 0 9 0;
#X connect 10 0 11 0;
#X connect 11 0 9 0;
#X connect 12 0 10 0;
#X connect 13 0 19 0;
#X connect 14 0 13 0;
#X connect 14 0 7 0;
#X connect 15 0 14 0;
#X connect 16 0 33 0;
#X connect 16 0 34 0;
#X connect 17 0 18 0;
#X connect 18 0 43 0;
#X connect 19 0 17 0;
#X connect 20 0 29 0;
#X connect 20 0 32 0;
#X connect 21 0 20 0;
#X connect 22 0 20 0;
#X connect 23 0 20 0;
#X connect 24 0 20 0;
#X connect 25 0 20 0;
#X connect 26 0 20 0;
#X connect 27 0 20 0;
#X connect 28 0 20 0;
#X connect 30 0 31 1;
#X connect 31 0 45 0;
#X connect 32 0 31 0;
#X connect 33 0 2 0;
#X connect 34 0 2 1;
#X connect 35 0 36 0;
#X connect 36 0 37 0;
#X connect 37 0 21 0;
#X connect 37 1 22 0;
#X connect 37 2 23 0;
#X connect 37 3 24 0;
#X connect 37 4 25 0;
#X connect 37 5 26 0;
#X connect 37 6 27 0;
#X connect 37 7 28 0;
#X connect 38 0 39 0;
#X connect 39 0 40 0;
#X connect 39 0 42 0;
#X connect 40 0 39 1;
#X connect 41 0 39 1;
#X connect 42 0 53 0;
#X connect 43 0 16 0;
#X connect 43 1 44 0;
#X connect 45 0 12 0;
#X connect 46 0 1 1;
#X connect 47 0 52 0;
#X connect 48 0 50 0;
#X connect 49 0 48 0;
#X connect 50 0 21 0;
#X connect 50 1 22 0;
#X connect 50 2 23 0;
#X connect 50 3 24 0;
#X connect 50 4 25 0;
#X connect 50 5 26 0;
#X connect 50 6 27 0;
#X connect 50 7 28 0;
#X connect 51 0 46 0;
#X connect 52 0 38 0;
#X connect 53 0 54 0;
#X connect 54 0 21 0;
#X connect 54 1 21 0;
#X connect 54 2 22 0;
#X connect 54 3 48 0;
#X connect 54 4 21 0;
#X connect 54 5 21 0;
#X connect 54 6 48 0;
