#N canvas 0 38 1512 841 12;
#X obj 284 530 netsend -u;
#X msg 410 495 connect 192.168.0.7 3001;
#X msg 284 495 send \$1 \$2;
#X obj 225 453 pack;
#X obj 261 386 r length;
#X obj 168 386 r note;
#X obj 1094 386 s note;
#X obj 1347 415 s length;
#X msg 1349 360 1;
#X obj 211 52 bng 19 250 50 0 empty empty empty 0 -10 0 12 #fcfcfc #000000 #000000;
#X obj 213 155 f;
#X obj 262 155 + 1;
#X floatatom 213 190 5 0 0 0 - - - 0;
#X floatatom 213 259 5 0 0 0 - - - 0;
#X obj 213 293 s step;
#X obj 1058 52 r step;
#X obj 406 283 bng 19 250 50 0 empty empty empty 0 -10 0 12 #fcfcfc #000000 #000000;
#X obj 335 155 bng 19 250 50 0 empty empty empty 0 -10 0 12 #fcfcfc #000000 #000000;
#X obj 459 622 bng 19 250 50 0 empty empty empty 0 -10 0 12 #fcfcfc #000000 #000000;
#X obj 359 360 array set PianoPattern;
#X obj 1058 87 hradio 19 1 0 32 empty empty empty 0 -10 0 12 #fcfcfc #000000 #000000 0;
#X obj 901 155 array get PianoPattern;
#X msg 890 318 60;
#X msg 938 318 67;
#X msg 1392 360 0.5;
#X msg 1457 360 0.25;
#X text 362 154 first note pattern;
#X obj 1250 213 sel 1 2 3 0;
#X msg 1094 318 65;
#X msg 1146 318 72;
#X msg 336 184 1 0 0 0 2 0 0 0 1 0 2 0 0 0 0 0 0 0 1 0 2 0 2 0 1 0 2 0 0 0 0 0, f 66;
#X text 490 621 length pattern;
#X obj 213 224 % 32;
#X floatatom 168 421 5 0 0 0 - - - 0;
#X floatatom 261 421 5 0 0 0 - - - 0;
#N canvas 0 50 450 250 (subpatch) 0;
#X array PianoPattern 200 float 5;
#A 0 1 0 0 0 2 0 0 0 1 0 2 0 0 0 0 0 0 0 1 0 2 0 2 0 1 0 2 0 0 0 0 0 0 0 0 0 0 0 0 0 0 0 0 0 0 0 0 0 0 0 0 0 0 0 0 0 0 0 0 0 0 0 0 0 0 0 0 0 0 0 0 0 0 0 0 0 0 0 0 0 0 0 0 0 0 0 0 0 0 0 0 0 0 0 0 0 0 0 0 0 0 0 0 0 0 0 0 0 0 0 0 0 0 0 0 0 0 0 0 0 0 0 0 0 0 0 0 0 0 0 0 0 0 0 0 0 0 0 0 0 0 0 0 0 0 0 0 0 0 0 0 0 0 0 0 0 0 0 0 0 0 0 0 0 0 0 0 0 0 0 0 0 0 0 0.342857 0 0 0 0 0 0 0 0 0 0 0 0 0 0 0 0 0 0 0 0 0 0 0 0 0;
#X coords 0 250 1 249 200 140 0;
#X restore 564 386 graph;
#X obj 1250 155 array get NoteLength;
#X obj 459 692 array set NoteLength;
#N canvas 0 50 450 250 (subpatch) 0;
#X array NoteLength 200 float 5;
#A 0 0 0 0 1 0 0 0 2 0 3 0 0 0 0 0 0 0 2 0 2 0 2 0 2 0 2 0 3 0 0 0 0 0 1 0 0 0 0 0 0 0 0 0 0 0 0 0 0 0 0 0 0 0 0 0 0 0 0 0 0 0 0 0 0 0 0 0 0 0 0 0 0 0 0 0 0 0 0 0 0 0 0 0 0 0 0 0 0 0 0 0 0 0 0 0 0 0 0 0 0 0 0 0 0 0 0 0 0 0 0 0 0 0 0 0 0 0 0 0 0 0 0 0 0 0 0 0 0 0 0 0 0 0 0 0 0 0 0 0 0 0 0 0 0 0 0 0 0 0 0 0 0 0 0 0 0 0 0 0 0 0 0 0 0 0 0 0 0 0 0 0 0 0 0 0 0 0 0 0 0 0 0 0 0 0 0 0 0 0 0 0 0 0 0 0 0 0 0 0 0;
#X coords 0 250 1 249 200 140 0;
#X restore 619 386 graph;
#X msg 459 657 0 0 0 1 0 0 0 2 0 3 0 0 0 0 0 0 0 2 0 2 0 2 0 2 0 2 0 3 0 0 0 0 0 1, f 70;
#X obj 890 283 bng 19 250 50 0 empty empty empty 0 -10 0 12 #fcfcfc #000000 #000000;
#X obj 211 87 metro 120;
#X text 434 282 third note pattern;
#X obj 370 213 bng 19 250 50 0 empty empty empty 0 -10 0 12 #fcfcfc #000000 #000000;
#X msg 370 248 3 0 0 0 4 0 0 0 3 0 4 0 0 0 0 0 0 0 3 0 4 0 4 0 3 0 4 0 0 0 0 0, f 66;
#X text 398 212 second note pattern;
#X msg 406 318 5 0 0 0 6 0 0 0 5 0 6 0 0 0 0 0 0 0 5 0 6 0 6 0 5 0 6 0 0 0 0 0, f 66;
#X obj 901 213 sel 1 2 3 4 5 6 0;
#X msg 991 318 62;
#X msg 1047 318 69;
#X obj 1047 283 bng 19 250 50 0 empty empty empty 0 -10 0 12 #fcfcfc #000000 #000000;
#X obj 1094 283 bng 19 250 50 0 empty empty empty 0 -10 0 12 #fcfcfc #000000 #000000;
#X obj 1146 283 bng 19 250 50 0 empty empty empty 0 -10 0 12 #fcfcfc #000000 #000000;
#X obj 991 283 bng 19 250 50 0 empty empty empty 0 -10 0 12 #fcfcfc #000000 #000000;
#X obj 938 283 bng 19 250 50 0 empty empty empty 0 -10 0 12 #fcfcfc #000000 #000000;
#X connect 1 0 0 0;
#X connect 2 0 0 0;
#X connect 3 0 2 0;
#X connect 4 0 34 0;
#X connect 5 0 33 0;
#X connect 8 0 7 0;
#X connect 9 0 41 0;
#X connect 10 0 11 0;
#X connect 10 0 12 0;
#X connect 11 0 10 1;
#X connect 12 0 32 0;
#X connect 13 0 14 0;
#X connect 15 0 20 0;
#X connect 16 0 46 0;
#X connect 17 0 30 0;
#X connect 18 0 39 0;
#X connect 20 0 21 0;
#X connect 20 0 36 0;
#X connect 21 0 47 0;
#X connect 22 0 6 0;
#X connect 23 0 6 0;
#X connect 24 0 7 0;
#X connect 25 0 7 0;
#X connect 27 0 8 0;
#X connect 27 1 24 0;
#X connect 27 2 25 0;
#X connect 28 0 6 0;
#X connect 29 0 6 0;
#X connect 30 0 19 0;
#X connect 32 0 13 0;
#X connect 33 0 3 0;
#X connect 34 0 3 1;
#X connect 36 0 27 0;
#X connect 39 0 37 0;
#X connect 40 0 22 0;
#X connect 41 0 10 0;
#X connect 43 0 44 0;
#X connect 44 0 19 0;
#X connect 46 0 19 0;
#X connect 47 0 40 0;
#X connect 47 1 54 0;
#X connect 47 2 48 0;
#X connect 47 2 53 0;
#X connect 47 3 50 0;
#X connect 47 4 51 0;
#X connect 47 5 52 0;
#X connect 48 0 6 0;
#X connect 49 0 6 0;
#X connect 50 0 49 0;
#X connect 51 0 28 0;
#X connect 52 0 29 0;
#X connect 53 0 48 0;
#X connect 54 0 23 0;
