#N canvas 19 75 415 645 12;
#X obj 33 257 dac~;
#X obj 33 143 *~;
#X obj 78 198 *~ 1;
#X obj 33 167 *~ 1;
#N canvas 245 144 1232 557 env 0;
#X obj 87 171 f;
#X obj 133 171 f;
#X obj 180 171 f;
#X obj 226 171 f;
#X obj 87 290 vline~;
#X msg 87 266 \$1 \$2 \, \$3 \$4 \$5 \, 0 \$6 \$7;
#X obj 87 242 pack 0 0 0 0 0 0 0, f 23;
#X obj 132 197 + 10;
#X obj 87 123 t b b b b b, f 27;
#X obj 273 171 f;
#X obj 245 218 +;
#X obj 139 219 *;
#X obj 87 95 bng 19 250 50 0 empty note empty 0 -10 0 12 #fcfcfc #000000 #000000;
#X obj 87 316 outlet~;
#X obj 105 146 r Vo;
#X obj 151 146 r At;
#X obj 198 146 r De;
#X obj 244 146 r Su;
#X obj 291 146 r Re;
#X connect 0 0 6 0;
#X connect 0 0 11 0;
#X connect 1 0 6 1;
#X connect 1 0 7 0;
#X connect 2 0 11 1;
#X connect 3 0 6 3;
#X connect 3 0 10 1;
#X connect 4 0 13 0;
#X connect 5 0 4 0;
#X connect 6 0 5 0;
#X connect 7 0 6 4;
#X connect 7 0 10 0;
#X connect 8 0 0 0;
#X connect 8 1 1 0;
#X connect 8 2 2 0;
#X connect 8 3 3 0;
#X connect 8 4 9 0;
#X connect 9 0 6 5;
#X connect 10 0 6 6;
#X connect 11 0 6 2;
#X connect 12 0 8 0;
#X connect 14 0 0 1;
#X connect 15 0 1 1;
#X connect 16 0 2 1;
#X connect 17 0 3 1;
#X connect 18 0 9 1;
#X restore 67 119 pd env;
#N canvas 276 192 1050 436 fm 0;
#X obj 41 189 osc~;
#X obj 41 166 +~;
#X obj 59 143 *~;
#X obj 59 119 osc~;
#X obj 95 119 *~;
#X obj 59 94 *~;
#X obj 41 49 mtof;
#X floatatom 41 74 5 0 0 0 - - - 0;
#X floatatom 77 50 5 0 0 0 - - - 0;
#X floatatom 113 70 5 0 0 0 - - - 0;
#X obj 41 221 outlet~;
#X obj 77 23 r Ha;
#X obj 113 23 r In;
#X obj 41 23 r Ca;
#X connect 0 0 10 0;
#X connect 1 0 0 0;
#X connect 2 0 1 1;
#X connect 3 0 2 0;
#X connect 4 0 2 1;
#X connect 5 0 3 0;
#X connect 5 0 4 0;
#X connect 6 0 7 0;
#X connect 7 0 1 0;
#X connect 7 0 5 0;
#X connect 8 0 5 1;
#X connect 9 0 4 1;
#X connect 11 0 8 0;
#X connect 12 0 9 0;
#X connect 13 0 6 0;
#X restore 33 51 pd fm;
#N canvas 266 291 1174 492 rev 0;
#X obj 215 413 delwrite~ A 1000;
#X obj 350 413 delwrite~ B 1000;
#X obj 577 412 delwrite~ D 1000;
#X obj 464 413 delwrite~ C 1000;
#X obj 204 81 delread~ A 101;
#X obj 338 81 delread~ B 143;
#X obj 458 81 delread~ C 165;
#X obj 598 80 delread~ D 177;
#X obj 207 138 +~;
#X obj 337 140 +~;
#X obj 457 236 +~;
#X obj 601 230 -~;
#X obj 206 243 +~;
#X obj 333 241 -~;
#X obj 338 338 +~;
#X obj 610 337 -~;
#X obj 215 341 +~;
#X obj 459 337 -~;
#X obj 213 380 *~ 0.4;
#X obj 353 381 *~ 0.37;
#X obj 462 380 *~ 0.333;
#X obj 578 382 *~ 0.3;
#X obj 92 69 inlet~;
#X obj 44 214 outlet~;
#X obj 122 218 outlet~;
#X connect 4 0 8 1;
#X connect 5 0 9 1;
#X connect 6 0 10 0;
#X connect 6 0 11 0;
#X connect 7 0 11 1;
#X connect 7 0 10 1;
#X connect 8 0 12 1;
#X connect 8 0 13 0;
#X connect 8 0 23 0;
#X connect 9 0 13 1;
#X connect 9 0 12 0;
#X connect 9 0 24 0;
#X connect 10 0 17 1;
#X connect 10 0 16 1;
#X connect 11 0 15 1;
#X connect 11 0 14 1;
#X connect 12 0 16 0;
#X connect 12 0 17 0;
#X connect 13 0 14 0;
#X connect 13 0 15 0;
#X connect 14 0 19 0;
#X connect 15 0 21 0;
#X connect 16 0 18 0;
#X connect 17 0 20 0;
#X connect 18 0 0 0;
#X connect 19 0 1 0;
#X connect 20 0 3 0;
#X connect 21 0 2 0;
#X connect 22 0 8 0;
#X connect 22 0 9 0;
#X restore 78 221 pd rev;
#X obj 33 95 hip~;
#X obj 33 119 lop~;
#X floatatom 183 291 5 0 0 0 - - Ca 0;
#X floatatom 282 199 5 0 0 0 - - De 0;
#X floatatom 202 273 5 0 0 0 - - Ha 0;
#X obj 183 59 netreceive;
#X msg 183 34 listen 2000;
#X obj 183 84 unpack f f f f f f f f f f;
#X floatatom 222 255 5 0 0 0 - - In 0;
#X floatatom 242 236 5 0 0 0 - - Vo 0;
#X floatatom 262 217 5 0 0 0 - - At 0;
#X floatatom 302 180 5 0 0 0 - - Su 0;
#X floatatom 322 161 5 0 0 0 - - Re 0;
#X floatatom 342 142 5 0 0 0 - - Lop 0;
#X floatatom 362 124 5 0 0 0 - - Hip 0;
#X obj 61 72 r Hip;
#X obj 67 95 r Lop;
#X obj 182 271 cnv 19 19 19 empty empty empty 20 12 0 12 #ffc7c6 #404040 0;
#X obj 202 253 cnv 19 19 19 empty empty empty 20 12 0 12 #ffe3c6 #404040 0;
#X obj 222 235 cnv 19 19 19 empty empty empty 20 12 0 12 #feffc6 #404040 0;
#X obj 242 216 cnv 19 19 19 empty empty empty 20 12 0 12 #c6ffc7 #404040 0;
#X obj 262 197 cnv 19 19 19 empty empty empty 20 12 0 12 #c6feff #404040 0;
#X obj 282 179 cnv 19 19 19 empty empty empty 20 12 0 12 #c7c6ff #404040 0;
#X obj 302 160 cnv 19 19 19 empty empty empty 20 12 0 12 #e3c6ff #404040 0;
#X obj 322 141 cnv 19 19 19 empty empty empty 20 12 0 12 #f9dbea #404040 0;
#X obj 342 122 cnv 19 19 19 empty empty empty 20 12 0 12 #8abcfd #404040 0;
#X obj 362 104 cnv 19 19 19 empty empty empty 20 12 0 12 #fe8cfe #404040 0;
#X connect 1 0 3 0;
#X connect 2 0 6 0;
#X connect 3 0 0 0;
#X connect 3 0 0 1;
#X connect 3 0 2 0;
#X connect 4 0 1 1;
#X connect 5 0 7 0;
#X connect 6 0 0 0;
#X connect 6 1 0 1;
#X connect 7 0 8 0;
#X connect 8 0 1 0;
#X connect 12 0 14 0;
#X connect 13 0 12 0;
#X connect 14 0 9 0;
#X connect 14 1 11 0;
#X connect 14 2 15 0;
#X connect 14 3 16 0;
#X connect 14 4 17 0;
#X connect 14 5 10 0;
#X connect 14 6 18 0;
#X connect 14 7 19 0;
#X connect 14 8 20 0;
#X connect 14 9 21 0;
#X connect 22 0 7 1;
#X connect 23 0 8 1;
