#N canvas 177 74 1159 804 12;
#X obj 430 492 bng 19 250 50 0 empty empty empty 0 -10 0 12 #fcfcfc #000000 #000000;
#X obj 430 540 line~;
#X obj 430 564 sqrt~;
#X obj 430 588 *~ 20;
#X obj 430 612 -~ 0.25;
#X obj 430 660 lop~ 1000;
#X obj 574 487 bng 19 250 50 0 empty empty empty 0 -10 0 12 #fcfcfc #000000 #000000;
#X obj 574 511 t b b;
#X obj 574 559 line~;
#X obj 574 583 pow~ 4;
#X obj 574 607 *~;
#X obj 574 631 +~;
#X obj 574 655 lop~ 4000;
#X obj 430 636 cos~;
#X msg 689 534 1 \, 0 200;
#X obj 689 558 line~;
#X obj 689 582 pow~ 4;
#X obj 689 606 *~;
#X obj 762 539 noise~;
#X obj 762 563 hip~ 3000;
#X obj 762 587 bp~ 5000 2;
#X obj 860 504 bng 19 250 50 0 empty empty empty 0 -10 0 12 #fcfcfc #000000 #000000;
#X obj 860 552 line~;
#X obj 860 576 pow~ 4;
#X obj 860 600 *~;
#X obj 928 412 phasor~ 350;
#X obj 928 436 *~ 2;
#X obj 928 460 -~ 1;
#X obj 928 484 +~;
#X obj 1015 412 phasor~ 800;
#X obj 1015 438 *~ 2;
#X obj 1015 465 -~ 1;
#X obj 967 500 noise~;
#X obj 928 533 hip~ 8000;
#X obj 928 557 hip~ 8000;
#X obj 928 581 hip~ 8000;
#X msg 860 528 1 \, 0 200;
#X obj 595 160 t f b;
#X obj 595 243 f;
#X obj 595 294 hradio 19 1 0 16 empty empty empty 0 -10 0 12 #fcfcfc #000000 #000000 0;
#X obj 630 243 + 1;
#X msg 613 213 0;
#X obj 595 130 tgl 19 0 empty empty empty 0 -10 0 12 #fcfcfc #000000 #000000 0 1;
#X obj 595 267 % 16;
#X obj 595 385 select 0 1 2 3 4 5 6;
#X floatatom 595 356 5 0 0 0 - - - 0;
#X msg 257 325 4 0 2 10 5 10 2 0 2 10 4 0 5 10 6 10;
#X msg 257 391 4 2 4 2 5 2 4 5 2 5 4 5 5 4 2 5;
#X obj 595 184 metro 200;
#X obj 257 299 bng 19 250 50 0 empty empty empty 0 -10 0 12 #fcfcfc #000000 #000000;
#X msg 257 262 4 10 4 10 5 10 2 1 2 1 4 0 5 10 2 1;
#X obj 257 235 bng 19 250 50 0 empty empty empty 0 -10 0 12 #fcfcfc #000000 #000000;
#X obj 257 366 bng 19 250 50 0 empty empty empty 0 -10 0 12 #fcfcfc #000000 #000000;
#X obj 366 111 print;
#X obj 420 111 unpack s f;
#X symbolatom 420 143 21 0 0 0 - - - 0;
#X obj 40 128 print;
#X obj 88 128 unpack s f;
#X symbolatom 88 160 21 0 0 0 - - - 0;
#X obj 89 34 bng 19 250 50 0 empty empty empty 0 -10 0 12 #fcfcfc #000000 #000000;
#X obj 43 280 print;
#X obj 89 280 unpack s f;
#X symbolatom 89 312 21 0 0 0 - - - 0;
#X obj 43 435 print;
#X obj 89 435 unpack s f;
#X symbolatom 89 467 21 0 0 0 - - - 0;
#X obj 430 709 *~;
#X obj 430 733 dac~;
#X floatatom 88 633 5 0 1 0 - - - 0;
#X obj 574 707 *~;
#X obj 574 731 dac~;
#X floatatom 136 632 5 0 1 0 - - - 0;
#X obj 860 649 *~;
#X obj 860 673 dac~;
#X floatatom 186 631 5 0 1 0 - - - 0;
#X obj 42 595 print;
#X msg 88 536 listen 17005;
#X obj 88 565 netreceive 17005;
#X obj 88 594 route V1 V2 V3;
#X msg 421 53 listen 17001;
#X obj 421 82 netreceive 17001;
#X msg 89 70 listen 17002;
#X obj 89 99 netreceive 17002;
#X msg 89 222 listen 17003;
#X obj 89 251 netreceive 17003;
#X msg 89 377 listen 17004;
#X obj 89 406 netreceive 17004;
#X text 390 493 Kick;
#X text 527 490 snare;
#X text 807 504 cymbal;
#X msg 430 516 0 \, 1 300;
#X msg 574 535 1 \, 0 100;
#X obj 624 588 osc~ 300;
#X obj 860 624 *~ 2;
#X obj 574 682 *~ 0.8;
#X obj 430 684 *~ 0.8;
#X text 284 233 first pattern;
#X text 285 298 second pattern;
#X text 288 365 third pattern;
#X text 622 128 comment;
#X obj 595 325 array get DrumPattern;
#X obj 257 466 array set DrumPattern;
#N canvas 0 22 450 278 (subpatch) 0;
#X array DrumPattern 16 float 3;
#A 0 4 2 4 2 5 2 4 5 2 5 4 5 5 4 2 5;
#X coords 0 6 16 0 200 140 1 0 0;
#X restore 776 61 graph;
#X connect 0 0 90 0;
#X connect 1 0 2 0;
#X connect 2 0 3 0;
#X connect 3 0 4 0;
#X connect 4 0 13 0;
#X connect 5 0 95 0;
#X connect 6 0 7 0;
#X connect 7 0 91 0;
#X connect 7 1 14 0;
#X connect 8 0 9 0;
#X connect 9 0 10 0;
#X connect 10 0 11 0;
#X connect 11 0 12 0;
#X connect 12 0 94 0;
#X connect 13 0 5 0;
#X connect 14 0 15 0;
#X connect 15 0 16 0;
#X connect 16 0 17 0;
#X connect 17 0 11 1;
#X connect 18 0 19 0;
#X connect 19 0 20 0;
#X connect 20 0 17 1;
#X connect 21 0 36 0;
#X connect 22 0 23 0;
#X connect 23 0 24 0;
#X connect 24 0 93 0;
#X connect 25 0 26 0;
#X connect 26 0 27 0;
#X connect 27 0 28 0;
#X connect 28 0 33 0;
#X connect 29 0 30 0;
#X connect 30 0 31 0;
#X connect 31 0 28 1;
#X connect 32 0 33 0;
#X connect 33 0 34 0;
#X connect 34 0 35 0;
#X connect 35 0 24 1;
#X connect 36 0 22 0;
#X connect 37 0 48 0;
#X connect 37 1 41 0;
#X connect 38 0 40 0;
#X connect 38 0 43 0;
#X connect 39 0 100 0;
#X connect 40 0 38 1;
#X connect 41 0 38 1;
#X connect 42 0 37 0;
#X connect 43 0 39 0;
#X connect 44 0 0 0;
#X connect 44 1 6 0;
#X connect 44 2 21 0;
#X connect 44 3 0 0;
#X connect 44 3 6 0;
#X connect 44 4 0 0;
#X connect 44 4 21 0;
#X connect 44 5 6 0;
#X connect 44 5 21 0;
#X connect 44 6 0 0;
#X connect 44 6 6 0;
#X connect 44 6 21 0;
#X connect 45 0 44 0;
#X connect 46 0 101 0;
#X connect 47 0 101 0;
#X connect 48 0 38 0;
#X connect 49 0 46 0;
#X connect 50 0 101 0;
#X connect 51 0 50 0;
#X connect 52 0 47 0;
#X connect 54 0 55 0;
#X connect 54 1 42 0;
#X connect 57 0 58 0;
#X connect 57 1 51 0;
#X connect 59 0 81 0;
#X connect 59 0 83 0;
#X connect 59 0 85 0;
#X connect 59 0 76 0;
#X connect 59 0 79 0;
#X connect 61 0 62 0;
#X connect 61 1 49 0;
#X connect 64 0 65 0;
#X connect 64 1 52 0;
#X connect 66 0 67 0;
#X connect 66 0 67 1;
#X connect 68 0 66 1;
#X connect 69 0 70 0;
#X connect 69 0 70 1;
#X connect 71 0 69 1;
#X connect 72 0 73 0;
#X connect 72 0 73 1;
#X connect 74 0 72 1;
#X connect 76 0 77 0;
#X connect 77 0 75 0;
#X connect 77 0 78 0;
#X connect 78 0 68 0;
#X connect 78 1 71 0;
#X connect 78 2 74 0;
#X connect 79 0 80 0;
#X connect 80 0 53 0;
#X connect 80 0 54 0;
#X connect 81 0 82 0;
#X connect 82 0 56 0;
#X connect 82 0 57 0;
#X connect 83 0 84 0;
#X connect 84 0 60 0;
#X connect 84 0 61 0;
#X connect 85 0 86 0;
#X connect 86 0 63 0;
#X connect 86 0 64 0;
#X connect 90 0 1 0;
#X connect 91 0 8 0;
#X connect 92 0 10 1;
#X connect 93 0 72 0;
#X connect 94 0 69 0;
#X connect 95 0 66 0;
#X connect 100 0 45 0;
