#N canvas 888 80 1920 976 12;
#X obj 372 774 dac~;
#X obj 583 620 vsl 30 162 0 1 0 0 empty empty empty 0 -9 0 12 #00ff04 #000000 #000000 0 1;
#X floatatom 480 749 5 0 0 0 - - - 0;
#X obj 636 513 vline~;
#X obj 371 682 *~;
#X obj 115 511 bng 19 250 50 0 empty empty empty 0 -10 0 12 #fcfcfc #000000 #000000;
#X obj 372 738 *~;
#X obj 160 511 bng 19 250 50 0 empty empty empty 0 -10 0 12 #fcfcfc #000000 #000000;
#X obj 206 511 bng 19 250 50 0 empty empty empty 0 -10 0 12 #fcfcfc #000000 #000000;
#X obj 244 511 bng 19 250 50 0 empty empty empty 0 -10 0 12 #fcfcfc #000000 #000000;
#X obj 276 510 bng 19 250 50 0 empty empty empty 0 -10 0 12 #fcfcfc #000000 #000000;
#X msg 115 547 58;
#X msg 160 547 60;
#X msg 206 547 62;
#X msg 244 547 63;
#X msg 276 547 65;
#X obj 171 600 mtof;
#X msg 314 546 67;
#X obj 313 513 bng 19 250 50 0 empty empty empty 0 -10 0 12 #fcfcfc #000000 #000000;
#X msg 262 420 58;
#X msg 420 420 67;
#X msg 389 420 65;
#X msg 358 420 63;
#X msg 327 420 62;
#X msg 295 420 60;
#X obj 594 440 bng 19 250 50 0 empty empty empty 0 -10 0 12 #fcfcfc #000000 #000000;
#X obj 636 441 bng 19 250 50 0 empty empty empty 0 -10 0 12 #fcfcfc #000000 #000000;
#X obj 675 441 bng 19 250 50 0 empty empty empty 0 -10 0 12 #fcfcfc #000000 #000000;
#X msg 277 222 listen 3001;
#X obj 277 258 netreceive -u 3001;
#X obj 332 284 unpack f f;
#X floatatom 294 347 5 0 0 0 - - - 0;
#X floatatom 491 347 5 0 0 0 - - - 0;
#X obj 163 664 osc~;
#X floatatom 166 631 5 0 0 0 - - - 0;
#X obj 595 387 select 0.25 0.5 1;
#X msg 515 420 72;
#X msg 486 420 70;
#X msg 452 420 69;
#X obj 160 468 select 58 60 62 63 65 67 69 70 72;
#X obj 351 512 bng 19 250 50 0 empty empty empty 0 -10 0 12 #fcfcfc #000000 #000000;
#X obj 384 514 bng 19 250 50 0 empty empty empty 0 -10 0 12 #fcfcfc #000000 #000000;
#X obj 419 513 bng 19 250 50 0 empty empty empty 0 -10 0 12 #fcfcfc #000000 #000000;
#X msg 351 548 69;
#X msg 385 548 70;
#X msg 418 548 72;
#X msg 749 477 1 0 \, 0 50 430;
#X msg 636 477 1 0 \, 0 50 190;
#X msg 531 478 1 0 \, 0 50 70;
#X obj 277 186 bng 19 250 50 0 empty empty empty 0 -10 0 12 #fcfcfc #000000 #000000;
#X connect 1 0 2 0;
#X connect 2 0 6 1;
#X connect 3 0 4 1;
#X connect 4 0 6 0;
#X connect 5 0 11 0;
#X connect 6 0 0 0;
#X connect 6 0 0 1;
#X connect 7 0 12 0;
#X connect 8 0 13 0;
#X connect 9 0 14 0;
#X connect 10 0 15 0;
#X connect 11 0 16 0;
#X connect 12 0 16 0;
#X connect 13 0 16 0;
#X connect 14 0 16 0;
#X connect 15 0 16 0;
#X connect 16 0 34 0;
#X connect 17 0 16 0;
#X connect 18 0 17 0;
#X connect 19 0 39 0;
#X connect 20 0 39 0;
#X connect 21 0 39 0;
#X connect 22 0 39 0;
#X connect 23 0 39 0;
#X connect 24 0 39 0;
#X connect 25 0 48 0;
#X connect 26 0 47 0;
#X connect 27 0 46 0;
#X connect 28 0 29 0;
#X connect 29 0 30 0;
#X connect 30 0 31 0;
#X connect 30 1 32 0;
#X connect 31 0 39 0;
#X connect 32 0 35 0;
#X connect 33 0 4 0;
#X connect 34 0 33 0;
#X connect 35 0 25 0;
#X connect 35 1 26 0;
#X connect 35 2 27 0;
#X connect 36 0 39 0;
#X connect 37 0 39 0;
#X connect 38 0 39 0;
#X connect 39 0 5 0;
#X connect 39 1 7 0;
#X connect 39 2 8 0;
#X connect 39 3 9 0;
#X connect 39 4 10 0;
#X connect 39 5 18 0;
#X connect 39 6 40 0;
#X connect 39 7 41 0;
#X connect 39 8 42 0;
#X connect 40 0 43 0;
#X connect 41 0 44 0;
#X connect 42 0 45 0;
#X connect 43 0 16 0;
#X connect 44 0 16 0;
#X connect 45 0 16 0;
#X connect 46 0 3 0;
#X connect 47 0 3 0;
#X connect 48 0 3 0;
#X connect 49 0 28 0;
