#N canvas 446 25 822 716 12;
#X obj 33 257 dac~;
#X obj 33 143 *~;
#X obj 275 111 vsl 30 162 0 1 0 0 V v empty 0 -9 0 12 #c6ffc7 #000000 #000000 0 1;
#X obj 153 111 vsl 30 162 0 127 0 0 C c empty 0 -9 0 12 #ffc7c6 #000000 #000000 0 1;
#X obj 194 111 vsl 30 162 0 7 0 0 H h empty 0 -9 0 12 #ffe3c6 #000000 #000000 0 1;
#X obj 234 111 vsl 30 162 0 1 0 0 I i empty 0 -9 0 12 #feffc6 #000000 #000000 0 1;
#X obj 316 111 vsl 30 162 0 500 0 0 A a empty 0 -9 0 12 #c6feff #000000 #000000 0 1;
#X obj 357 111 vsl 30 162 0 0.999 0 0 D d empty 0 -9 0 12 #c7c6ff #000000 #000000 0 1;
#X obj 398 111 vsl 30 162 0 1500 0 0 S s empty 0 -9 0 12 #e3c6ff #000000 #000000 0 1;
#X obj 439 111 vsl 30 162 0 1500 0 0 R r empty 0 -9 0 12 #fbdceb #000000 #000000 0 1;
#X obj 516 31 loadbang;
#X obj 516 257 s i;
#X obj 544 257 s a;
#X obj 600 257 s s;
#X obj 572 257 s d;
#X obj 628 257 s r;
#X obj 78 198 *~ 1;
#X obj 33 167 *~ 1;
#N canvas 138 159 1232 557 env 0;
#X obj 87 171 f;
#X obj 133 171 f;
#X obj 180 171 f;
#X obj 226 171 f;
#X obj 87 290 vline~;
#X msg 87 266 \$1 \$2 \, \$3 \$4 \$5 \, 0 \$6 \$7;
#X obj 87 242 pack 0 0 0 0 0 0 0, f 23;
#X obj 132 197 + 10;
#X obj 87 123 t b b b b b, f 27;
#X obj 273 171 f;
#X obj 245 218 +;
#X obj 151 146 r A;
#X obj 105 146 r V;
#X obj 198 146 r D;
#X obj 244 146 r S;
#X obj 291 146 r R;
#X obj 139 219 *;
#X obj 325 210 +;
#X obj 91 85 bng 19 250 50 0 empty note empty 0 -10 0 12 #fcfcfc #000000 #000000;
#X obj 81 339 outlet~;
#X connect 0 0 6 0;
#X connect 0 0 16 0;
#X connect 1 0 6 1;
#X connect 1 0 7 0;
#X connect 2 0 16 1;
#X connect 3 0 6 3;
#X connect 3 0 10 1;
#X connect 4 0 19 0;
#X connect 5 0 4 0;
#X connect 6 0 5 0;
#X connect 7 0 6 4;
#X connect 7 0 10 0;
#X connect 8 0 0 0;
#X connect 8 1 1 0;
#X connect 8 2 2 0;
#X connect 8 3 3 0;
#X connect 8 4 9 0;
#X connect 9 0 6 5;
#X connect 9 0 17 1;
#X connect 10 0 6 6;
#X connect 10 0 17 0;
#X connect 11 0 1 1;
#X connect 12 0 0 1;
#X connect 13 0 2 1;
#X connect 14 0 3 1;
#X connect 15 0 9 1;
#X connect 16 0 6 2;
#X connect 18 0 8 0;
#X restore 67 119 pd env;
#N canvas 276 192 1050 436 fm 0;
#X obj 41 189 osc~;
#X obj 41 166 +~;
#X obj 59 143 *~;
#X obj 59 119 osc~;
#X obj 95 119 *~;
#X obj 59 94 *~;
#X obj 41 49 mtof;
#X obj 41 23 r C;
#X obj 77 25 r H;
#X obj 113 25 r I;
#X floatatom 41 74 5 0 0 0 - - - 0;
#X floatatom 77 50 5 0 0 0 - - - 0;
#X floatatom 113 70 5 0 0 0 - - - 0;
#X obj 41 221 outlet~;
#X connect 0 0 13 0;
#X connect 1 0 0 0;
#X connect 2 0 1 1;
#X connect 3 0 2 0;
#X connect 4 0 2 1;
#X connect 5 0 3 0;
#X connect 5 0 4 0;
#X connect 6 0 10 0;
#X connect 7 0 6 0;
#X connect 8 0 11 0;
#X connect 9 0 12 0;
#X connect 10 0 1 0;
#X connect 10 0 5 0;
#X connect 11 0 5 1;
#X connect 12 0 4 1;
#X restore 33 31 pd fm;
#N canvas 266 291 1174 492 rev 0;
#X obj 215 413 delwrite~ A 1000;
#X obj 350 413 delwrite~ B 1000;
#X obj 577 412 delwrite~ D 1000;
#X obj 464 413 delwrite~ C 1000;
#X obj 204 81 delread~ A 101;
#X obj 338 81 delread~ B 143;
#X obj 458 81 delread~ C 165;
#X obj 598 80 delread~ D 177;
#X obj 207 138 +~;
#X obj 337 140 +~;
#X obj 457 236 +~;
#X obj 601 230 -~;
#X obj 206 243 +~;
#X obj 333 241 -~;
#X obj 338 338 +~;
#X obj 610 337 -~;
#X obj 215 341 +~;
#X obj 459 337 -~;
#X obj 213 380 *~ 0.4;
#X obj 353 381 *~ 0.37;
#X obj 462 380 *~ 0.333;
#X obj 578 382 *~ 0.3;
#X obj 92 69 inlet~;
#X obj 44 214 outlet~;
#X obj 122 218 outlet~;
#X connect 4 0 8 1;
#X connect 5 0 9 1;
#X connect 6 0 10 0;
#X connect 6 0 11 0;
#X connect 7 0 11 1;
#X connect 7 0 10 1;
#X connect 8 0 12 1;
#X connect 8 0 13 0;
#X connect 8 0 23 0;
#X connect 9 0 13 1;
#X connect 9 0 12 0;
#X connect 9 0 24 0;
#X connect 10 0 17 1;
#X connect 10 0 16 1;
#X connect 11 0 15 1;
#X connect 11 0 14 1;
#X connect 12 0 16 0;
#X connect 12 0 17 0;
#X connect 13 0 14 0;
#X connect 13 0 15 0;
#X connect 14 0 19 0;
#X connect 15 0 21 0;
#X connect 16 0 18 0;
#X connect 17 0 20 0;
#X connect 18 0 0 0;
#X connect 19 0 1 0;
#X connect 20 0 3 0;
#X connect 21 0 2 0;
#X connect 22 0 8 0;
#X connect 22 0 9 0;
#X restore 78 221 pd rev;
#N canvas 691 25 718 375 notes 0;
#X floatatom 365 103 5 0 0 0 - - - 0;
#X obj 365 124 sel 97 115 100 102 103 104 106 107;
#X msg 216 213 \$1;
#X obj 216 188 expr $f1 * 12 + $f2;
#X msg 365 170 0;
#X obj 216 121 r octave;
#X msg 396 170 2;
#X msg 427 170 3;
#X msg 458 170 5;
#X msg 489 170 7;
#X msg 520 170 9;
#X msg 551 170 10;
#X msg 582 170 12;
#X obj 216 243 s c;
#X floatatom 111 131 8 0 0 2 - - - 0;
#X obj 227 144 s note;
#X obj 365 80 keyup;
#X obj 263 218 mtof;
#X connect 0 0 1 0;
#X connect 1 0 4 0;
#X connect 1 0 3 0;
#X connect 1 0 15 0;
#X connect 1 1 6 0;
#X connect 1 1 3 0;
#X connect 1 1 15 0;
#X connect 1 2 7 0;
#X connect 1 2 3 0;
#X connect 1 2 15 0;
#X connect 1 3 8 0;
#X connect 1 3 3 0;
#X connect 1 3 15 0;
#X connect 1 4 9 0;
#X connect 1 4 3 0;
#X connect 1 4 15 0;
#X connect 1 5 10 0;
#X connect 1 5 3 0;
#X connect 1 5 15 0;
#X connect 1 6 11 0;
#X connect 1 6 3 0;
#X connect 1 6 15 0;
#X connect 1 7 12 0;
#X connect 1 7 3 0;
#X connect 1 7 15 0;
#X connect 2 0 13 0;
#X connect 2 0 17 0;
#X connect 3 0 2 0;
#X connect 4 0 3 1;
#X connect 5 0 3 0;
#X connect 6 0 3 1;
#X connect 7 0 3 1;
#X connect 8 0 3 1;
#X connect 9 0 3 1;
#X connect 10 0 3 1;
#X connect 11 0 3 1;
#X connect 12 0 3 1;
#X connect 16 0 0 0;
#X connect 17 0 14 0;
#X coords 0 -1 1 1 85 60 1 100 100;
#X restore 259 31 pd notes;
#N canvas 756 209 450 300 octave 0;
#X obj 65 62 keyname;
#X symbolatom 111 85 10 0 0 0 - - - 0;
#X obj 111 106 sel Up Down;
#X obj 111 130 f;
#X floatatom 65 87 5 0 0 0 - - - 0;
#X obj 139 130 + \$1;
#X obj 174 130 f;
#X obj 201 130 - \$1;
#X msg 65 111 0;
#X obj 111 156 +;
#X floatatom 111 181 5 0 0 0 - - octave 0;
#X connect 0 0 4 0;
#X connect 0 1 1 0;
#X connect 1 0 2 0;
#X connect 2 0 3 0;
#X connect 2 1 6 0;
#X connect 2 1 9 0;
#X connect 3 0 5 0;
#X connect 3 0 9 0;
#X connect 4 0 5 1;
#X connect 4 0 7 1;
#X connect 5 0 3 1;
#X connect 6 0 7 0;
#X connect 6 0 9 1;
#X connect 7 0 6 1;
#X connect 8 0 3 0;
#X connect 8 0 6 0;
#X connect 9 0 10 0;
#X coords -4 -20 4 -10 85 60 1 100 150;
#X restore 153 31 pd octave;
#N canvas 846 300 450 300 harmonicity 0;
#X obj 6 -21 key;
#X floatatom 6 2 5 0 0 0 - - - 0;
#X obj 6 25 sel 119 101 114 116 121 117 105;
#X msg 6 52 1;
#X msg 36 52 2;
#X msg 67 52 3;
#X msg 97 52 4;
#X msg 128 52 5;
#X msg 158 52 6;
#X msg 189 52 7;
#X obj 6 82 s h;
#X obj 31 128 r h;
#X floatatom 31 156 5 0 0 0 - - - 0;
#X connect 0 0 1 0;
#X connect 1 0 2 0;
#X connect 2 0 3 0;
#X connect 2 1 4 0;
#X connect 2 2 5 0;
#X connect 2 3 6 0;
#X connect 2 4 7 0;
#X connect 2 5 8 0;
#X connect 2 6 9 0;
#X connect 3 0 10 0;
#X connect 4 0 10 0;
#X connect 5 0 10 0;
#X connect 6 0 10 0;
#X connect 7 0 10 0;
#X connect 8 0 10 0;
#X connect 9 0 10 0;
#X connect 11 0 12 0;
#X coords 0 -1 1 1 85 60 1 20 125;
#X restore 367 31 pd harmonicity;
#X obj 358 288 r C;
#X obj 412 288 r I;
#X obj 439 288 r V;
#X obj 466 288 r A;
#X obj 493 288 r D;
#X obj 520 288 r S;
#X obj 547 288 r R;
#X floatatom 575 643 5 0 0 0 - - - 0;
#X floatatom 674 551 5 0 0 0 - - - 0;
#X floatatom 594 625 5 0 0 0 - - - 0;
#X obj 335 316 bng 19 250 50 0 empty empty empty 0 -10 0 12 #fcfcfc #000000 #000000;
#X msg 600 92 500;
#X msg 544 166 125;
#X msg 572 129 0.3;
#X msg 516 203 0.5;
#X obj 575 429 netreceive;
#X obj 358 388 netsend;
#X msg 575 404 listen 2000;
#X msg 386 358 connect localhost 2000;
#X obj 103 308 tgl 30 0 low empty empty 0 -10 0 12 #8bbdfe #000000 #000000 0 1;
#X obj 141 308 tgl 30 0 high empty empty 0 -10 0 12 #ff8cff #000000 #000000 0 1;
#X obj 28 350 r low;
#X obj 28 491 s lop;
#X obj 33 72 *~;
#X obj 33 95 hip~;
#X obj 61 72 r hip;
#X obj 33 119 lop~;
#X obj 67 95 r lop;
#X obj 621 55 s one;
#X obj 76 421 t;
#X obj 76 443 tgl 19 0 empty empty empty 0 -10 0 12 #fcfcfc #000000 #000000 0 1;
#X obj 28 421 spigot;
#X obj 67 396 tgl 19 0 empty empty empty 0 -10 0 12 #fcfcfc #000000 #000000 0 1;
#X msg 76 466 20000;
#X msg 28 453 100;
#X obj 103 421 r one;
#X obj 28 372 t b b;
#X obj 196 421 t;
#X obj 196 443 tgl 19 0 empty empty empty 0 -10 0 12 #fcfcfc #000000 #000000 0 1;
#X obj 148 421 spigot;
#X obj 187 396 tgl 19 0 empty empty empty 0 -10 0 12 #fcfcfc #000000 #000000 0 1;
#X obj 223 421 r one;
#X obj 148 372 t b b;
#X obj 148 350 r high;
#X obj 148 491 s hip;
#X msg 148 453 2000;
#X msg 196 466 20;
#X obj 358 335 pack f f f f f f f f f f;
#X obj 574 288 r lop;
#X obj 615 288 r hip;
#X obj 575 454 unpack f f f f f f f f f f;
#X floatatom 614 607 5 0 0 0 - - - 0;
#X floatatom 634 588 5 0 0 0 - - - 0;
#X floatatom 654 569 5 0 0 0 - - - 0;
#X floatatom 694 532 5 0 0 0 - - - 0;
#X floatatom 714 513 5 0 0 0 - - - 0;
#X floatatom 734 494 5 0 0 0 - - - 0;
#X floatatom 754 476 5 0 0 0 - - - 0;
#X obj 385 288 r H;
#X connect 1 0 17 0;
#X connect 10 0 38 0;
#X connect 10 0 36 0;
#X connect 10 0 37 0;
#X connect 10 0 35 0;
#X connect 10 0 52 0;
#X connect 16 0 20 0;
#X connect 17 0 0 0;
#X connect 17 0 0 1;
#X connect 17 0 16 0;
#X connect 18 0 1 1;
#X connect 19 0 47 0;
#X connect 20 0 0 0;
#X connect 20 1 0 1;
#X connect 24 0 71 0;
#X connect 25 0 34 0;
#X connect 25 0 71 2;
#X connect 26 0 34 0;
#X connect 26 0 71 3;
#X connect 27 0 34 0;
#X connect 27 0 71 4;
#X connect 28 0 34 0;
#X connect 28 0 71 5;
#X connect 29 0 34 0;
#X connect 29 0 71 6;
#X connect 30 0 34 0;
#X connect 30 0 71 7;
#X connect 34 0 71 0;
#X connect 35 0 13 0;
#X connect 35 0 15 0;
#X connect 36 0 12 0;
#X connect 37 0 14 0;
#X connect 38 0 11 0;
#X connect 39 0 74 0;
#X connect 41 0 39 0;
#X connect 42 0 40 0;
#X connect 45 0 60 0;
#X connect 47 0 48 0;
#X connect 48 0 50 0;
#X connect 49 0 48 1;
#X connect 50 0 1 0;
#X connect 51 0 50 1;
#X connect 53 0 54 0;
#X connect 54 0 57 0;
#X connect 55 0 58 0;
#X connect 56 0 55 1;
#X connect 56 0 53 0;
#X connect 57 0 46 0;
#X connect 58 0 46 0;
#X connect 59 0 54 0;
#X connect 60 0 55 0;
#X connect 60 1 56 0;
#X connect 61 0 62 0;
#X connect 62 0 70 0;
#X connect 63 0 69 0;
#X connect 64 0 63 1;
#X connect 64 0 61 0;
#X connect 65 0 62 0;
#X connect 66 0 63 0;
#X connect 66 1 64 0;
#X connect 67 0 66 0;
#X connect 69 0 68 0;
#X connect 70 0 68 0;
#X connect 71 0 40 0;
#X connect 72 0 71 8;
#X connect 72 0 34 0;
#X connect 73 0 71 9;
#X connect 73 0 34 0;
#X connect 74 0 31 0;
#X connect 74 1 33 0;
#X connect 74 2 75 0;
#X connect 74 3 76 0;
#X connect 74 4 77 0;
#X connect 74 5 32 0;
#X connect 74 6 78 0;
#X connect 74 7 79 0;
#X connect 74 8 80 0;
#X connect 74 9 81 0;
#X connect 82 0 71 1;
#X connect 82 0 34 0;
