#N canvas 0 38 1512 842 12;
#N canvas 0 22 450 278 (subpatch) 0;
#X array rythm-pitches 16 float 3;
#A 0 76 0 74 0 72 0 74 0 76 0 74 0 77 0 76 0;
#X coords 0 127 16 0 200 127 1 0 0;
#X restore 1291 686 graph;
#X floatatom 31 301 5 0 0 0 - - - 0;
#X obj 22 235 hradio 19 1 0 16 empty empty empty 0 -10 0 12 #c6ffc7 #000000 #000000 0;
#X obj 32 325 mtof;
#X obj 10 350 osc~;
#X obj 463 781 dac~;
#X obj 1417 100 tgl 19 0 empty empty empty 0 -10 0 12 #feffc6 #000000 #000000 0 1;
#X obj 9 271 array get rythm-pitches;
#X obj 172 47 array set rythm-pitches;
#X obj 464 718 *~;
#X obj 20 629 vsl 19 162 0 1 0 0 empty empty empty 0 -9 0 12 #c6feff #000000 #000000 0 1;
#X floatatom 63 762 5 0 0 0 - - - 0;
#X text 23 5 Rythm;
#X obj 197 812 lop~ 30;
#X obj 195 844 osc~;
#X obj 121 435 bng 19 250 50 0 empty empty empty 0 -10 0 12 #c6feff #000000 #000000;
#X obj 119 470 f;
#X obj 187 469 + 1;
#X obj 153 532 hradio 19 1 0 8 empty empty empty 0 -10 0 12 #e3c6ff #000000 #000000 0;
#X floatatom 340 668 5 0 0 0 - - - 0;
#X obj 340 699 mtof;
#X obj 346 731 osc~;
#X obj 1351 102 tgl 19 0 empty empty empty 0 -10 0 12 #feffc6 #000000 #000000 0 1;
#X obj 115 568 select 0 1 2 3 4 5 6;
#X msg 357 603 0;
#X msg 448 602 0;
#X obj 117 509 % 8;
#X obj 194 728 r noise;
#X obj 197 750 noise~;
#X obj 199 791 *~;
#X obj 260 771 hsl 128 15 2000 20000 0 0 empty empty empty -2 -8 0 10 #ffe3c6 #000000 #000000 0 1;
#X text 1329 45 DJ DROP THE BEAT!!!;
#X text 176 701 Wind;
#X obj 94 877 metro 400;
#X obj 94 910 bng 19 250 50 0 empty empty empty 0 -10 0 12 #c6feff #000000 #000000;
#X floatatom 110 1085 5 0 0 0 - - - 0;
#X obj 110 1116 mtof;
#X obj 116 1148 osc~;
#X obj 97 975 % 4;
#X obj 96 939 random 4;
#X obj 77 1007 select 0 1 2;
#X text 26 854 Random chaos;
#X obj 15 892 r chaos;
#X obj 1380 160 tgl 19 0 empty empty empty 0 -10 0 12 #feffc6 #000000 #000000 0 1;
#X obj 1367 191 s chaos;
#X msg 1434 193 0;
#X msg 48 1042 64;
#X msg 87 1042 67;
#X msg 131 1042 71;
#X msg 177 1041 72;
#X msg 141 607 74;
#X msg 180 607 0;
#X msg 224 607 72;
#X msg 270 606 0;
#X msg 309 604 71;
#X msg 402 602 72;
#X obj 366 340 bng 19 250 50 0 empty empty empty 0 -10 0 12 #c6feff #000000 #000000;
#X obj 364 375 f;
#X obj 432 374 + 1;
#X obj 305 419 hradio 19 1 0 8 empty empty empty 0 -10 0 12 #e3c6ff #000000 #000000 0;
#X floatatom 496 557 5 0 0 0 - - - 0;
#X obj 496 588 mtof;
#X obj 502 620 osc~;
#X obj 267 455 select 0 1 2 3 4 5 6;
#X msg 517 493 0;
#X msg 608 492 0;
#X obj 318 393 % 8;
#X msg 332 494 0;
#X msg 422 493 0;
#X msg 293 494 64;
#X msg 376 494 64;
#X msg 465 493 64;
#X msg 562 492 64;
#X obj 584 248 bng 19 250 50 0 empty empty empty 0 -10 0 12 #c6feff #000000 #000000;
#X obj 582 283 f;
#X obj 650 282 + 1;
#X obj 528 325 hradio 19 1 0 8 empty empty empty 0 -10 0 12 #e3c6ff #000000 #000000 0;
#X floatatom 673 434 5 0 0 0 - - - 0;
#X obj 586 444 mtof;
#X obj 640 461 osc~;
#X obj 490 361 select 0 1 2 3 4 5 6;
#X msg 736 398 0;
#X msg 827 397 0;
#X obj 492 302 % 8;
#X msg 555 400 0;
#X msg 645 399 0;
#X msg 516 400 67;
#X msg 599 400 67;
#X msg 688 399 67;
#X msg 781 397 67;
#X msg 1302 106 0;
#X obj 584 215 metro 500;
#X obj 366 307 metro 500;
#X obj 121 402 metro 500;
#X obj 7 373 *~ 1;
#X obj 72 206 % 16;
#X obj 83 82 bng 19 250 50 0 empty empty empty 0 -10 0 12 #c6feff #000000 #000000;
#X obj 81 117 f;
#X obj 149 116 + 1;
#X obj 83 49 metro 500;
#X obj 4 64 r rythm2;
#X obj 494 245 r rythm1;
#X obj 287 322 r rythm1;
#X obj 42 417 r rythm1;
#X obj 1339 132 s rythm1;
#X obj 1430 134 s rythm2;
#X msg 176 9 76 0 74 0 72 0 74 0 76 0 74 0 77 0 76 0;
#X obj 1309 157 tgl 19 0 empty empty empty 0 -10 0 12 #feffc6 #000000 #000000 0 1;
#X obj 1280 191 s rythm3;
#X obj 611 72 bng 19 250 50 0 empty empty empty 0 -10 0 12 #c6feff #000000 #000000;
#X obj 609 107 f;
#X obj 677 106 + 1;
#X obj 643 169 hradio 19 1 0 8 empty empty empty 0 -10 0 12 #e3c6ff #000000 #000000 0;
#X floatatom 442 229 5 0 0 0 - - - 0;
#X obj 442 260 mtof;
#X obj 448 292 osc~;
#X obj 267 142 select 0 1 2 3 4 5 6;
#X msg 513 179 0;
#X msg 604 178 0;
#X obj 607 146 % 8;
#X msg 332 181 0;
#X msg 422 180 0;
#X obj 611 39 metro 500;
#X obj 867 54 bng 19 250 50 0 empty empty empty 0 -10 0 12 #c6feff #000000 #000000;
#X obj 865 89 f;
#X obj 933 88 + 1;
#X obj 1005 10 hradio 19 1 0 8 empty empty empty 0 -10 0 12 #e3c6ff #000000 #000000 0;
#X floatatom 982 114 5 0 0 0 - - - 0;
#X obj 982 145 mtof;
#X obj 988 177 osc~;
#X obj 967 46 select 0 1 2 3 4 5 6;
#X msg 1186 73 0;
#X msg 1277 72 0;
#X obj 863 128 % 8;
#X msg 1005 75 0;
#X msg 1095 74 0;
#X obj 867 21 metro 500;
#X msg 293 181 65;
#X msg 376 181 65;
#X msg 465 180 65;
#X msg 559 178 65;
#X msg 966 75 69;
#X msg 1049 75 69;
#X msg 1138 74 69;
#X msg 1231 72 69;
#X obj 532 54 r rythm2;
#X obj 788 37 r rythm2;
#X obj 534 16 r rythm3;
#X obj 786 3 r rythm3;
#X msg 1273 158 0;
#X msg 1452 100 0;
#X floatatom 942 313 5 0 0 0 - - - 0;
#X obj 835 222 hradio 16 1 0 16 empty empty empty 0 -10 0 12 #c6ffc7 #000000 #000000 0;
#X obj 943 337 mtof;
#X obj 921 362 osc~;
#X obj 918 385 *~ 1;
#X obj 760 265 bng 19 250 50 0 empty empty empty 0 -10 0 12 #c6feff #000000 #000000;
#X obj 758 300 f;
#X obj 826 299 + 1;
#X obj 681 247 r rythm4;
#X obj 1388 251 tgl 19 0 empty empty empty 0 -10 0 12 #feffc6 #000000 #000000 0 1;
#X obj 1388 282 s rythm4;
#X msg 1425 250 0;
#X obj 920 283 array get rythm-pitches2;
#N canvas 0 22 450 278 (subpatch) 0;
#X array rythm-pitches2 16 float 3;
#A 0 74 64 67 74 72 64 67 72 71 64 67 71 72 64 67 72;
#X coords 0 127 16 0 200 127 1 0 0;
#X restore 1282 538 graph;
#X obj 201 115 array set rythm-pitches2;
#X msg 170 77 74 64 67 74 72 64 67 72 71 64 67 71 72 64 67 72;
#X obj 760 232 metro 350;
#X obj 1065 197 % 16;
#N canvas 0 22 450 278 (subpatch) 0;
#X array rythm-pitches3 32 float 3;
#A 0 76 65 69 76 74 65 69 74 73 65 69 73 74 65 69 74 76 76 76 0 74 74 74 0 77 77 77 0 76 76 76 0;
#X coords 0 127 32 0 200 127 1 0 0;
#X restore 1292 385 graph;
#X obj 1105 353 array set rythm-pitches3;
#X floatatom 920 691 5 0 0 0 - - - 0;
#X obj 691 627 hradio 18 1 0 32 empty empty empty 0 -10 0 12 #c6ffc7 #000000 #000000 0;
#X obj 921 715 mtof;
#X obj 899 740 osc~;
#X obj 896 763 *~ 1;
#X obj 972 472 bng 19 250 50 0 empty empty empty 0 -10 0 12 #c6feff #000000 #000000;
#X obj 893 454 r rythm5;
#X obj 1270 225 tgl 19 0 empty empty empty 0 -10 0 12 #feffc6 #000000 #000000 0 1;
#X msg 1307 224 0;
#X obj 1270 256 s rythm5;
#X obj 972 439 metro 350;
#X obj 969 509 f;
#X obj 1037 508 + 1;
#X obj 898 661 array get rythm-pitches3;
#X msg 1074 315 76 65 69 76 74 65 69 74 73 65 69 73 74 65 69 74 76 76 76 0 74 74 74 0 77 77 77 0 76 76 76 0;
#X obj 961 596 % 32;
#X connect 1 0 3 0;
#X connect 2 0 7 0;
#X connect 3 0 4 0;
#X connect 4 0 94 0;
#X connect 6 0 105 0;
#X connect 7 0 1 0;
#X connect 9 0 5 0;
#X connect 10 0 11 0;
#X connect 11 0 9 1;
#X connect 13 0 14 0;
#X connect 14 0 9 0;
#X connect 15 0 16 0;
#X connect 16 0 17 0;
#X connect 16 0 26 0;
#X connect 17 0 16 1;
#X connect 18 0 23 0;
#X connect 19 0 20 0;
#X connect 20 0 21 0;
#X connect 21 0 9 0;
#X connect 22 0 104 0;
#X connect 23 0 50 0;
#X connect 23 1 51 0;
#X connect 23 2 52 0;
#X connect 23 3 53 0;
#X connect 23 4 54 0;
#X connect 23 5 24 0;
#X connect 23 6 55 0;
#X connect 23 7 25 0;
#X connect 24 0 19 0;
#X connect 25 0 19 0;
#X connect 26 0 18 0;
#X connect 27 0 28 0;
#X connect 28 0 29 0;
#X connect 29 0 13 0;
#X connect 30 0 29 1;
#X connect 33 0 34 0;
#X connect 34 0 39 0;
#X connect 35 0 36 0;
#X connect 36 0 37 0;
#X connect 37 0 9 0;
#X connect 38 0 40 0;
#X connect 39 0 38 0;
#X connect 40 0 46 0;
#X connect 40 1 47 0;
#X connect 40 2 48 0;
#X connect 40 3 49 0;
#X connect 42 0 33 0;
#X connect 43 0 44 0;
#X connect 45 0 35 0;
#X connect 46 0 35 0;
#X connect 47 0 35 0;
#X connect 48 0 35 0;
#X connect 49 0 35 0;
#X connect 50 0 19 0;
#X connect 51 0 19 0;
#X connect 52 0 19 0;
#X connect 53 0 19 0;
#X connect 54 0 19 0;
#X connect 55 0 19 0;
#X connect 56 0 57 0;
#X connect 57 0 58 0;
#X connect 57 0 66 0;
#X connect 58 0 57 1;
#X connect 59 0 63 0;
#X connect 60 0 61 0;
#X connect 61 0 62 0;
#X connect 62 0 9 0;
#X connect 63 0 69 0;
#X connect 63 1 67 0;
#X connect 63 2 70 0;
#X connect 63 3 68 0;
#X connect 63 4 71 0;
#X connect 63 5 64 0;
#X connect 63 6 72 0;
#X connect 63 7 65 0;
#X connect 64 0 60 0;
#X connect 65 0 60 0;
#X connect 66 0 59 0;
#X connect 67 0 60 0;
#X connect 68 0 60 0;
#X connect 69 0 60 0;
#X connect 70 0 60 0;
#X connect 71 0 60 0;
#X connect 72 0 60 0;
#X connect 73 0 74 0;
#X connect 74 0 75 0;
#X connect 74 0 83 0;
#X connect 75 0 74 1;
#X connect 76 0 80 0;
#X connect 77 0 78 0;
#X connect 78 0 79 0;
#X connect 79 0 9 0;
#X connect 80 0 86 0;
#X connect 80 1 84 0;
#X connect 80 2 87 0;
#X connect 80 3 85 0;
#X connect 80 4 88 0;
#X connect 80 5 81 0;
#X connect 80 6 89 0;
#X connect 80 7 82 0;
#X connect 81 0 77 0;
#X connect 82 0 77 0;
#X connect 83 0 76 0;
#X connect 84 0 77 0;
#X connect 85 0 77 0;
#X connect 86 0 77 0;
#X connect 87 0 77 0;
#X connect 88 0 77 0;
#X connect 89 0 77 0;
#X connect 90 0 77 0;
#X connect 90 0 60 0;
#X connect 90 0 19 0;
#X connect 91 0 73 0;
#X connect 92 0 56 0;
#X connect 93 0 15 0;
#X connect 94 0 9 0;
#X connect 95 0 2 0;
#X connect 96 0 97 0;
#X connect 97 0 98 0;
#X connect 97 0 95 0;
#X connect 98 0 97 1;
#X connect 99 0 96 0;
#X connect 100 0 99 0;
#X connect 101 0 91 0;
#X connect 102 0 92 0;
#X connect 103 0 93 0;
#X connect 106 0 8 0;
#X connect 107 0 108 0;
#X connect 109 0 110 0;
#X connect 110 0 111 0;
#X connect 110 0 119 0;
#X connect 111 0 110 1;
#X connect 112 0 116 0;
#X connect 113 0 114 0;
#X connect 114 0 115 0;
#X connect 115 0 9 0;
#X connect 116 0 137 0;
#X connect 116 1 120 0;
#X connect 116 2 138 0;
#X connect 116 3 121 0;
#X connect 116 4 139 0;
#X connect 116 5 117 0;
#X connect 116 6 140 0;
#X connect 116 7 118 0;
#X connect 117 0 113 0;
#X connect 118 0 113 0;
#X connect 119 0 112 0;
#X connect 120 0 113 0;
#X connect 121 0 113 0;
#X connect 122 0 109 0;
#X connect 123 0 124 0;
#X connect 124 0 125 0;
#X connect 124 0 133 0;
#X connect 125 0 124 1;
#X connect 126 0 130 0;
#X connect 127 0 128 0;
#X connect 128 0 129 0;
#X connect 129 0 9 0;
#X connect 130 0 141 0;
#X connect 130 1 134 0;
#X connect 130 2 142 0;
#X connect 130 3 135 0;
#X connect 130 4 143 0;
#X connect 130 5 131 0;
#X connect 130 6 144 0;
#X connect 130 7 132 0;
#X connect 131 0 127 0;
#X connect 132 0 127 0;
#X connect 133 0 126 0;
#X connect 134 0 127 0;
#X connect 135 0 127 0;
#X connect 136 0 123 0;
#X connect 137 0 113 0;
#X connect 138 0 113 0;
#X connect 139 0 113 0;
#X connect 140 0 113 0;
#X connect 141 0 127 0;
#X connect 142 0 127 0;
#X connect 143 0 127 0;
#X connect 144 0 127 0;
#X connect 145 0 122 0;
#X connect 146 0 136 0;
#X connect 147 0 122 0;
#X connect 148 0 136 0;
#X connect 149 0 127 0;
#X connect 149 0 113 0;
#X connect 150 0 1 0;
#X connect 151 0 153 0;
#X connect 152 0 163 0;
#X connect 153 0 154 0;
#X connect 154 0 155 0;
#X connect 155 0 9 0;
#X connect 156 0 157 0;
#X connect 157 0 158 0;
#X connect 157 0 168 0;
#X connect 158 0 157 1;
#X connect 159 0 167 0;
#X connect 160 0 161 0;
#X connect 162 0 151 0;
#X connect 163 0 151 0;
#X connect 166 0 165 0;
#X connect 167 0 156 0;
#X connect 168 0 152 0;
#X connect 171 0 173 0;
#X connect 172 0 184 0;
#X connect 173 0 174 0;
#X connect 174 0 175 0;
#X connect 175 0 9 0;
#X connect 176 0 182 0;
#X connect 177 0 181 0;
#X connect 178 0 180 0;
#X connect 179 0 171 0;
#X connect 181 0 176 0;
#X connect 182 0 183 0;
#X connect 182 0 186 0;
#X connect 183 0 182 1;
#X connect 184 0 171 0;
#X connect 185 0 170 0;
#X connect 186 0 172 0;
